<?xml version="1.0" encoding="UTF-8" standalone="no"?><svg xmlns="http://www.w3.org/2000/svg" xmlns:xlink="http://www.w3.org/1999/xlink" clip-rule="evenodd" stroke-miterlimit="4.00" viewBox="0 0 1920 1080"><desc>SVG generated by Keynote</desc><defs></defs><g transform="matrix(1.00, 0.00, -0.00, -1.00, 0.0, 1080.0)"><path d="M 0.0 1080.0 L 1920.0 1080.0 L 1920.0 0.0 L 0.0 0.0 Z M 0.0 1080.0 " fill="#212121"></path><text xml:space="preserve" font-family="DINCondensed-Bold" font-weight="bold" font-size="303.0" fill="#34A4DA" transform="matrix(1.00, 0.00, -0.00, -1.00, 64.0, 413.0)">O</text><text xml:space="preserve" font-family="DINCondensed-Bold" font-weight="bold" font-size="303.0" fill="#34A4DA" transform="matrix(1.00, 0.00, -0.00, -1.00, 193.1, 413.0)">U</text><text xml:space="preserve" font-family="DINCondensed-Bold" font-weight="bold" font-size="303.0" fill="#34A4DA" transform="matrix(1.00, 0.00, -0.00, -1.00, 322.2, 413.0)">R</text><text xml:space="preserve" font-family="DINCondensed-Bold" font-weight="bold" font-size="303.0" fill="#34A4DA" transform="matrix(1.00, 0.00, -0.00, -1.00, 451.2, 413.0)"> </text><text xml:space="preserve" font-family="DINCondensed-Bold" font-weight="bold" font-size="303.0" fill="#34A4DA" transform="matrix(1.00, 0.00, -0.00, -1.00, 507.6, 413.0)">W</text><text xml:space="preserve" font-family="DINCondensed-Bold" font-weight="bold" font-size="303.0" fill="#34A4DA" transform="matrix(1.00, 0.00, -0.00, -1.00, 683.6, 413.0)">O</text><text xml:space="preserve" font-family="DINCondensed-Bold" font-weight="bold" font-size="303.0" fill="#34A4DA" transform="matrix(1.00, 0.00, -0.00, -1.00, 812.7, 413.0)">R</text><text xml:space="preserve" font-family="DINCondensed-Bold" font-weight="bold" font-size="303.0" fill="#34A4DA" transform="matrix(1.00, 0.00, -0.00, -1.00, 941.8, 413.0)">L</text><text xml:space="preserve" font-family="DINCondensed-Bold" font-weight="bold" font-size="303.0" fill="#34A4DA" transform="matrix(1.00, 0.00, -0.00, -1.00, 1053.9, 413.0)">D</text></g></svg>