<?xml version="1.0" encoding="UTF-8" standalone="no"?><svg xmlns="http://www.w3.org/2000/svg" xmlns:xlink="http://www.w3.org/1999/xlink" clip-rule="evenodd" stroke-miterlimit="4.00" viewBox="0 0 1920 1080"><desc>SVG generated by Keynote</desc><defs></defs><g transform="matrix(1.00, 0.00, -0.00, -1.00, 0.0, 1080.0)"><path d="M 0.0 1080.0 L 1920.0 1080.0 L 1920.0 0.0 L 0.0 0.0 Z M 0.0 1080.0 " fill="#212121"></path><path d="M 0.0 0.0 L 1800.0 0.0 " fill="none" stroke="#A6AAA9" stroke-width="4.00" transform="matrix(1.00, 0.00, 0.00, -1.00, 60.0, 400.0)"></path><text xml:space="preserve" font-family="DINCondensed-Bold" font-weight="bold" font-size="290.9" fill="#34A4DA" transform="matrix(1.00, 0.00, -0.00, -1.00, 64.0, 157.0)">L</text><text xml:space="preserve" font-family="DINCondensed-Bold" font-weight="bold" font-size="290.9" fill="#34A4DA" transform="matrix(1.00, 0.00, -0.00, -1.00, 171.6, 157.0)">A</text><text xml:space="preserve" font-family="DINCondensed-Bold" font-weight="bold" font-size="290.9" fill="#34A4DA" transform="matrix(1.00, 0.00, -0.00, -1.00, 290.0, 157.0)">G</text><text xml:space="preserve" font-family="DINCondensed-Bold" font-weight="bold" font-size="290.9" fill="#34A4DA" transform="matrix(1.00, 0.00, -0.00, -1.00, 413.9, 157.0)">A</text><text xml:space="preserve" font-family="DINCondensed-Bold" font-weight="bold" font-size="290.9" fill="#34A4DA" transform="matrix(1.00, 0.00, -0.00, -1.00, 532.3, 157.0)">R</text><text xml:space="preserve" font-family="DINCondensed-Bold" font-weight="bold" font-size="290.9" fill="#34A4DA" transform="matrix(1.00, 0.00, -0.00, -1.00, 656.2, 157.0)">E</text><text xml:space="preserve" font-family="DINCondensed-Bold" font-weight="bold" font-size="290.9" fill="#34A4DA" transform="matrix(1.00, 0.00, -0.00, -1.00, 763.9, 157.0)">S</text><text xml:space="preserve" font-family="DINCondensed-Bold" font-weight="bold" font-size="290.9" fill="#34A4DA" transform="matrix(1.00, 0.00, -0.00, -1.00, 882.0, 157.0)"> </text><text xml:space="preserve" font-family="DINCondensed-Bold" font-weight="bold" font-size="290.9" fill="#34A4DA" transform="matrix(1.00, 0.00, -0.00, -1.00, 936.1, 157.0)">C</text><text xml:space="preserve" font-family="DINCondensed-Bold" font-weight="bold" font-size="290.9" fill="#34A4DA" transform="matrix(1.00, 0.00, -0.00, -1.00, 1054.4, 157.0)">O</text><text xml:space="preserve" font-family="DINCondensed-Bold" font-weight="bold" font-size="290.9" fill="#34A4DA" transform="matrix(1.00, 0.00, -0.00, -1.00, 1178.4, 157.0)">R</text><text xml:space="preserve" font-family="DINCondensed-Bold" font-weight="bold" font-size="290.9" fill="#34A4DA" transform="matrix(1.00, 0.00, -0.00, -1.00, 1302.3, 157.0)">P</text><text xml:space="preserve" font-family="DINCondensed-Bold" font-weight="bold" font-size="290.9" fill="#34A4DA" transform="matrix(1.00, 0.00, -0.00, -1.00, 1383.1, 157.0)">.</text><text xml:space="preserve" font-family="DINAlternate-Bold" font-weight="bold" font-size="77.0" fill="#A6AAA9" transform="matrix(1.00, 0.00, -0.00, -1.00, 64.0, 429.0)">A</text><text xml:space="preserve" font-family="DINAlternate-Bold" font-weight="bold" font-size="77.0" fill="#A6AAA9" transform="matrix(1.00, 0.00, -0.00, -1.00, 111.0, 429.0)"> </text><text xml:space="preserve" font-family="DINAlternate-Bold" font-weight="bold" font-size="77.0" fill="#A6AAA9" transform="matrix(1.00, 0.00, -0.00, -1.00, 129.4, 429.0)">C</text><text xml:space="preserve" font-family="DINAlternate-Bold" font-weight="bold" font-size="77.0" fill="#A6AAA9" transform="matrix(1.00, 0.00, -0.00, -1.00, 172.2, 429.0)">O</text><text xml:space="preserve" font-family="DINAlternate-Bold" font-weight="bold" font-size="77.0" fill="#A6AAA9" transform="matrix(1.00, 0.00, -0.00, -1.00, 219.2, 429.0)">M</text><text xml:space="preserve" font-family="DINAlternate-Bold" font-weight="bold" font-size="77.0" fill="#A6AAA9" transform="matrix(1.00, 0.00, -0.00, -1.00, 277.5, 429.0)">P</text><text xml:space="preserve" font-family="DINAlternate-Bold" font-weight="bold" font-size="77.0" fill="#A6AAA9" transform="matrix(1.00, 0.00, -0.00, -1.00, 317.4, 429.0)">A</text><text xml:space="preserve" font-family="DINAlternate-Bold" font-weight="bold" font-size="77.0" fill="#A6AAA9" transform="matrix(1.00, 0.00, -0.00, -1.00, 364.4, 429.0)">N</text><text xml:space="preserve" font-family="DINAlternate-Bold" font-weight="bold" font-size="77.0" fill="#A6AAA9" transform="matrix(1.00, 0.00, -0.00, -1.00, 417.1, 429.0)">Y</text><text xml:space="preserve" font-family="DINAlternate-Bold" font-weight="bold" font-size="77.0" fill="#A6AAA9" transform="matrix(1.00, 0.00, -0.00, -1.00, 455.6, 429.0)"> </text><text xml:space="preserve" font-family="DINAlternate-Bold" font-weight="bold" font-size="77.0" fill="#A6AAA9" transform="matrix(1.00, 0.00, -0.00, -1.00, 474.0, 429.0)">F</text><text xml:space="preserve" font-family="DINAlternate-Bold" font-weight="bold" font-size="77.0" fill="#A6AAA9" transform="matrix(1.00, 0.00, -0.00, -1.00, 515.4, 429.0)">O</text><text xml:space="preserve" font-family="DINAlternate-Bold" font-weight="bold" font-size="77.0" fill="#A6AAA9" transform="matrix(1.00, 0.00, -0.00, -1.00, 562.3, 429.0)">R</text><text xml:space="preserve" font-family="DINAlternate-Bold" font-weight="bold" font-size="77.0" fill="#A6AAA9" transform="matrix(1.00, 0.00, -0.00, -1.00, 609.3, 429.0)"> </text><text xml:space="preserve" font-family="DINAlternate-Bold" font-weight="bold" font-size="77.0" fill="#A6AAA9" transform="matrix(1.00, 0.00, -0.00, -1.00, 627.7, 429.0)">T</text><text xml:space="preserve" font-family="DINAlternate-Bold" font-weight="bold" font-size="77.0" fill="#A6AAA9" transform="matrix(1.00, 0.00, -0.00, -1.00, 664.8, 429.0)">O</text><text xml:space="preserve" font-family="DINAlternate-Bold" font-weight="bold" font-size="77.0" fill="#A6AAA9" transform="matrix(1.00, 0.00, -0.00, -1.00, 711.8, 429.0)">M</text><text xml:space="preserve" font-family="DINAlternate-Bold" font-weight="bold" font-size="77.0" fill="#A6AAA9" transform="matrix(1.00, 0.00, -0.00, -1.00, 770.1, 429.0)">O</text><text xml:space="preserve" font-family="DINAlternate-Bold" font-weight="bold" font-size="77.0" fill="#A6AAA9" transform="matrix(1.00, 0.00, -0.00, -1.00, 817.1, 429.0)">R</text><text xml:space="preserve" font-family="DINAlternate-Bold" font-weight="bold" font-size="77.0" fill="#A6AAA9" transform="matrix(1.00, 0.00, -0.00, -1.00, 864.0, 429.0)">R</text><text xml:space="preserve" font-family="DINAlternate-Bold" font-weight="bold" font-size="77.0" fill="#A6AAA9" transform="matrix(1.00, 0.00, -0.00, -1.00, 911.0, 429.0)">O</text><text xml:space="preserve" font-family="DINAlternate-Bold" font-weight="bold" font-size="77.0" fill="#A6AAA9" transform="matrix(1.00, 0.00, -0.00, -1.00, 956.5, 429.0)">W</text><text xml:space="preserve" font-family="DINAlternate-Bold" font-weight="bold" font-size="77.0" fill="#A6AAA9" transform="matrix(1.00, 0.00, -0.00, -1.00, 1014.9, 429.0)">,</text><text xml:space="preserve" font-family="DINAlternate-Bold" font-weight="bold" font-size="77.0" fill="#A6AAA9" transform="matrix(1.00, 0.00, -0.00, -1.00, 1033.3, 429.0)"> </text><text xml:space="preserve" font-family="DINAlternate-Bold" font-weight="bold" font-size="77.0" fill="#A6AAA9" transform="matrix(1.00, 0.00, -0.00, -1.00, 1051.7, 429.0)">S</text><text xml:space="preserve" font-family="DINAlternate-Bold" font-weight="bold" font-size="77.0" fill="#A6AAA9" transform="matrix(1.00, 0.00, -0.00, -1.00, 1095.9, 429.0)">I</text><text xml:space="preserve" font-family="DINAlternate-Bold" font-weight="bold" font-size="77.0" fill="#A6AAA9" transform="matrix(1.00, 0.00, -0.00, -1.00, 1115.7, 429.0)">N</text><text xml:space="preserve" font-family="DINAlternate-Bold" font-weight="bold" font-size="77.0" fill="#A6AAA9" transform="matrix(1.00, 0.00, -0.00, -1.00, 1168.4, 429.0)">C</text><text xml:space="preserve" font-family="DINAlternate-Bold" font-weight="bold" font-size="77.0" fill="#A6AAA9" transform="matrix(1.00, 0.00, -0.00, -1.00, 1211.3, 429.0)">E</text><text xml:space="preserve" font-family="DINAlternate-Bold" font-weight="bold" font-size="77.0" fill="#A6AAA9" transform="matrix(1.00, 0.00, -0.00, -1.00, 1254.1, 429.0)"> </text><text xml:space="preserve" font-family="DINAlternate-Bold" font-weight="bold" font-size="77.0" fill="#A6AAA9" transform="matrix(1.00, 0.00, -0.00, -1.00, 1272.5, 429.0)">T</text><text xml:space="preserve" font-family="DINAlternate-Bold" font-weight="bold" font-size="77.0" fill="#A6AAA9" transform="matrix(1.00, 0.00, -0.00, -1.00, 1309.6, 429.0)">O</text><text xml:space="preserve" font-family="DINAlternate-Bold" font-weight="bold" font-size="77.0" fill="#A6AAA9" transform="matrix(1.00, 0.00, -0.00, -1.00, 1356.6, 429.0)">D</text><text xml:space="preserve" font-family="DINAlternate-Bold" font-weight="bold" font-size="77.0" fill="#A6AAA9" transform="matrix(1.00, 0.00, -0.00, -1.00, 1403.7, 429.0)">A</text><text xml:space="preserve" font-family="DINAlternate-Bold" font-weight="bold" font-size="77.0" fill="#A6AAA9" transform="matrix(1.00, 0.00, -0.00, -1.00, 1444.9, 429.0)">Y</text></g></svg>