<?xml version="1.0" encoding="UTF-8" standalone="no"?><svg xmlns="http://www.w3.org/2000/svg" xmlns:xlink="http://www.w3.org/1999/xlink" clip-rule="evenodd" stroke-miterlimit="4.00" viewBox="0 0 321 72"><desc>SVG generated by Keynote</desc><defs></defs><g transform="matrix(1.00, 0.00, -0.00, -1.00, 0.0, 72.0)"><text xml:space="preserve" font-family="AvenirNext-Medium" font-size="72.0" fill="#838686" transform="matrix(1.00, 0.00, -0.00, -1.00, 1.1, 19.0)"> </text><text xml:space="preserve" font-family="AvenirNext-Medium" font-size="72.0" fill="#838686" transform="matrix(1.00, 0.00, -0.00, -1.00, 19.1, 19.0)">j</text><text xml:space="preserve" font-family="AvenirNext-Medium" font-size="72.0" fill="#838686" transform="matrix(1.00, 0.00, -0.00, -1.00, 37.9, 19.0)">u</text><text xml:space="preserve" font-family="AvenirNext-Medium" font-size="72.0" fill="#838686" transform="matrix(1.00, 0.00, -0.00, -1.00, 79.8, 19.0)">s</text><text xml:space="preserve" font-family="AvenirNext-Medium" font-size="72.0" fill="#838686" transform="matrix(1.00, 0.00, -0.00, -1.00, 111.7, 19.0)">t</text><text xml:space="preserve" font-family="AvenirNext-Medium" font-size="72.0" fill="#838686" transform="matrix(1.00, 0.00, -0.00, -1.00, 135.4, 19.0)"> </text><text xml:space="preserve" font-family="AvenirNext-Medium" font-size="72.0" fill="#838686" transform="matrix(1.00, 0.00, -0.00, -1.00, 153.4, 19.0)">g</text><text xml:space="preserve" font-family="AvenirNext-Medium" font-size="72.0" fill="#838686" transform="matrix(1.00, 0.00, -0.00, -1.00, 198.9, 19.0)">o</text><text xml:space="preserve" font-family="AvenirNext-Medium" font-size="72.0" fill="#838686" transform="matrix(1.00, 0.00, -0.00, -1.00, 242.8, 19.0)">t</text><text xml:space="preserve" font-family="AvenirNext-Medium" font-size="72.0" fill="#838686" transform="matrix(1.00, 0.00, -0.00, -1.00, 266.5, 19.0)"> </text><text xml:space="preserve" font-family="AvenirNext-Medium" font-size="72.0" fill="#838686" transform="matrix(1.00, 0.00, -0.00, -1.00, 284.5, 19.0)">c</text></g></svg>