<?xml version="1.0" encoding="UTF-8" standalone="no"?><svg xmlns="http://www.w3.org/2000/svg" xmlns:xlink="http://www.w3.org/1999/xlink" clip-rule="evenodd" stroke-miterlimit="4.00" viewBox="0 0 1920 1080"><desc>SVG generated by Keynote</desc><defs></defs><g transform="matrix(1.00, 0.00, -0.00, -1.00, 0.0, 1080.0)"><path d="M 0.0 1080.0 L 1920.0 1080.0 L 1920.0 0.0 L 0.0 0.0 Z M 0.0 1080.0 " fill="#212121"></path><path d="M 0.0 0.0 L 990.0 0.0 " fill="none" stroke="#A6AAA9" stroke-width="4.00" transform="matrix(1.00, 0.00, 0.00, -1.00, 870.0, 400.0)"></path><g><clipPath id="clip-6"><path d="M 0.0 1080.0 L 810.0 1080.0 L 810.0 0.0 L 0.0 0.0 Z M 0.0 1080.0 "></path></clipPath><g clip-path="url(#clip-6)"><image xlink:href="EFD91A5623E3C2F4AD9822BBA6A2E27E.jpeg" width="1139.00" height="768.00" transform="matrix(1.41, 0.00, -0.00, -1.41, -481.0, 1080.0)"></image></g></g><text xml:space="preserve" font-family="DINCondensed-Bold" font-weight="bold" font-size="290.9" fill="#34A4DA" transform="matrix(1.00, 0.00, -0.00, -1.00, 874.0, 157.0)">D</text><text xml:space="preserve" font-family="DINCondensed-Bold" font-weight="bold" font-size="290.9" fill="#34A4DA" transform="matrix(1.00, 0.00, -0.00, -1.00, 997.9, 157.0)">I</text><text xml:space="preserve" font-family="DINCondensed-Bold" font-weight="bold" font-size="290.9" fill="#34A4DA" transform="matrix(1.00, 0.00, -0.00, -1.00, 1057.3, 157.0)">S</text><text xml:space="preserve" font-family="DINCondensed-Bold" font-weight="bold" font-size="290.9" fill="#34A4DA" transform="matrix(1.00, 0.00, -0.00, -1.00, 1175.4, 157.0)">A</text><text xml:space="preserve" font-family="DINCondensed-Bold" font-weight="bold" font-size="290.9" fill="#34A4DA" transform="matrix(1.00, 0.00, -0.00, -1.00, 1293.7, 157.0)">S</text><text xml:space="preserve" font-family="DINCondensed-Bold" font-weight="bold" font-size="290.9" fill="#34A4DA" transform="matrix(1.00, 0.00, -0.00, -1.00, 1411.8, 157.0)">T</text><text xml:space="preserve" font-family="DINCondensed-Bold" font-weight="bold" font-size="290.9" fill="#34A4DA" transform="matrix(1.00, 0.00, -0.00, -1.00, 1508.4, 157.0)">E</text><text xml:space="preserve" font-family="DINCondensed-Bold" font-weight="bold" font-size="290.9" fill="#34A4DA" transform="matrix(1.00, 0.00, -0.00, -1.00, 1616.0, 157.0)">R</text><text xml:space="preserve" font-family="DINAlternate-Bold" font-weight="bold" font-size="77.0" fill="#A6AAA9" transform="matrix(1.00, 0.00, -0.00, -1.00, 874.0, 429.0)">W</text><text xml:space="preserve" font-family="DINAlternate-Bold" font-weight="bold" font-size="77.0" fill="#A6AAA9" transform="matrix(1.00, 0.00, -0.00, -1.00, 938.1, 429.0)">E</text><text xml:space="preserve" font-family="DINAlternate-Bold" font-weight="bold" font-size="77.0" fill="#A6AAA9" transform="matrix(1.00, 0.00, -0.00, -1.00, 980.9, 429.0)"> </text><text xml:space="preserve" font-family="DINAlternate-Bold" font-weight="bold" font-size="77.0" fill="#A6AAA9" transform="matrix(1.00, 0.00, -0.00, -1.00, 999.3, 429.0)">A</text><text xml:space="preserve" font-family="DINAlternate-Bold" font-weight="bold" font-size="77.0" fill="#A6AAA9" transform="matrix(1.00, 0.00, -0.00, -1.00, 1046.3, 429.0)">R</text><text xml:space="preserve" font-family="DINAlternate-Bold" font-weight="bold" font-size="77.0" fill="#A6AAA9" transform="matrix(1.00, 0.00, -0.00, -1.00, 1093.2, 429.0)">E</text><text xml:space="preserve" font-family="DINAlternate-Bold" font-weight="bold" font-size="77.0" fill="#A6AAA9" transform="matrix(1.00, 0.00, -0.00, -1.00, 1136.1, 429.0)"> </text><text xml:space="preserve" font-family="DINAlternate-Bold" font-weight="bold" font-size="77.0" fill="#A6AAA9" transform="matrix(1.00, 0.00, -0.00, -1.00, 1154.5, 429.0)">B</text><text xml:space="preserve" font-family="DINAlternate-Bold" font-weight="bold" font-size="77.0" fill="#A6AAA9" transform="matrix(1.00, 0.00, -0.00, -1.00, 1201.5, 429.0)">U</text><text xml:space="preserve" font-family="DINAlternate-Bold" font-weight="bold" font-size="77.0" fill="#A6AAA9" transform="matrix(1.00, 0.00, -0.00, -1.00, 1250.0, 429.0)">I</text><text xml:space="preserve" font-family="DINAlternate-Bold" font-weight="bold" font-size="77.0" fill="#A6AAA9" transform="matrix(1.00, 0.00, -0.00, -1.00, 1269.8, 429.0)">L</text><text xml:space="preserve" font-family="DINAlternate-Bold" font-weight="bold" font-size="77.0" fill="#A6AAA9" transform="matrix(1.00, 0.00, -0.00, -1.00, 1312.6, 429.0)">D</text><text xml:space="preserve" font-family="DINAlternate-Bold" font-weight="bold" font-size="77.0" fill="#A6AAA9" transform="matrix(1.00, 0.00, -0.00, -1.00, 1361.1, 429.0)">I</text><text xml:space="preserve" font-family="DINAlternate-Bold" font-weight="bold" font-size="77.0" fill="#A6AAA9" transform="matrix(1.00, 0.00, -0.00, -1.00, 1381.0, 429.0)">N</text><text xml:space="preserve" font-family="DINAlternate-Bold" font-weight="bold" font-size="77.0" fill="#A6AAA9" transform="matrix(1.00, 0.00, -0.00, -1.00, 1433.7, 429.0)">G</text><text xml:space="preserve" font-family="DINAlternate-Bold" font-weight="bold" font-size="77.0" fill="#A6AAA9" transform="matrix(1.00, 0.00, -0.00, -1.00, 1480.6, 429.0)">…</text></g></svg>