<?xml version="1.0" encoding="UTF-8" standalone="no"?><svg xmlns="http://www.w3.org/2000/svg" xmlns:xlink="http://www.w3.org/1999/xlink" clip-rule="evenodd" stroke-miterlimit="4.00" viewBox="0 0 628 51"><desc>SVG generated by Keynote</desc><defs></defs><g transform="matrix(1.00, 0.00, -0.00, -1.00, 0.0, 51.0)"><text xml:space="preserve" font-family="AvenirNext-Medium" font-size="48.0" fill="#A6AAA8" transform="matrix(1.00, 0.00, -0.00, -1.00, -1.0, 13.0)">a</text><text xml:space="preserve" font-family="AvenirNext-Medium" font-size="48.0" fill="#A6AAA8" transform="matrix(1.00, 0.00, -0.00, -1.00, 25.0, 13.0)">n</text><text xml:space="preserve" font-family="AvenirNext-Medium" font-size="48.0" fill="#A6AAA8" transform="matrix(1.00, 0.00, -0.00, -1.00, 53.0, 13.0)">d</text><text xml:space="preserve" font-family="AvenirNext-Medium" font-size="48.0" fill="#A6AAA8" transform="matrix(1.00, 0.00, -0.00, -1.00, 83.4, 13.0)"> </text><text xml:space="preserve" font-family="AvenirNext-Medium" font-size="48.0" fill="#A6AAA8" transform="matrix(1.00, 0.00, -0.00, -1.00, 95.4, 13.0)">G</text><text xml:space="preserve" font-family="AvenirNext-Medium" font-size="48.0" fill="#A6AAA8" transform="matrix(1.00, 0.00, -0.00, -1.00, 132.8, 13.0)">a</text><text xml:space="preserve" font-family="AvenirNext-Medium" font-size="48.0" fill="#A6AAA8" transform="matrix(1.00, 0.00, -0.00, -1.00, 158.8, 13.0)">s</text><text xml:space="preserve" font-family="AvenirNext-Medium" font-size="48.0" fill="#A6AAA8" transform="matrix(1.00, 0.00, -0.00, -1.00, 180.1, 13.0)"> </text><text xml:space="preserve" font-family="AvenirNext-Medium" font-size="48.0" fill="#A6AAA8" transform="matrix(1.00, 0.00, -0.00, -1.00, 192.1, 13.0)">F</text><text xml:space="preserve" font-family="AvenirNext-Medium" font-size="48.0" fill="#A6AAA8" transform="matrix(1.00, 0.00, -0.00, -1.00, 219.4, 13.0)">l</text><text xml:space="preserve" font-family="AvenirNext-Medium" font-size="48.0" fill="#A6AAA8" transform="matrix(1.00, 0.00, -0.00, -1.00, 231.8, 13.0)">a</text><text xml:space="preserve" font-family="AvenirNext-Medium" font-size="48.0" fill="#A6AAA8" transform="matrix(1.00, 0.00, -0.00, -1.00, 257.9, 13.0)">r</text><text xml:space="preserve" font-family="AvenirNext-Medium" font-size="48.0" fill="#A6AAA8" transform="matrix(1.00, 0.00, -0.00, -1.00, 275.2, 13.0)">i</text><text xml:space="preserve" font-family="AvenirNext-Medium" font-size="48.0" fill="#A6AAA8" transform="matrix(1.00, 0.00, -0.00, -1.00, 287.7, 13.0)">n</text><text xml:space="preserve" font-family="AvenirNext-Medium" font-size="48.0" fill="#A6AAA8" transform="matrix(1.00, 0.00, -0.00, -1.00, 315.6, 13.0)">g</text><text xml:space="preserve" font-family="AvenirNext-Medium" font-size="48.0" fill="#A6AAA8" transform="matrix(1.00, 0.00, -0.00, -1.00, 345.9, 13.0)">:</text><text xml:space="preserve" font-family="AvenirNext-Medium" font-size="48.0" fill="#A6AAA8" transform="matrix(1.00, 0.00, -0.00, -1.00, 360.3, 13.0)"> </text><text xml:space="preserve" font-family="AvenirNext-Medium" font-size="48.0" fill="#A6AAA8" transform="matrix(1.00, 0.00, -0.00, -1.00, 372.3, 13.0)">1</text><text xml:space="preserve" font-family="AvenirNext-Medium" font-size="48.0" fill="#A6AAA8" transform="matrix(1.00, 0.00, -0.00, -1.00, 400.9, 13.0)">7</text><text xml:space="preserve" font-family="AvenirNext-Medium" font-size="48.0" fill="#A6AAA8" transform="matrix(1.00, 0.00, -0.00, -1.00, 429.5, 13.0)">5</text><text xml:space="preserve" font-family="AvenirNext-Medium" font-size="48.0" fill="#A6AAA8" transform="matrix(1.00, 0.00, -0.00, -1.00, 458.0, 13.0)">1</text><text xml:space="preserve" font-family="AvenirNext-Medium" font-size="48.0" fill="#A6AAA8" transform="matrix(1.00, 0.00, -0.00, -1.00, 486.6, 13.0)">-</text><text xml:space="preserve" font-family="AvenirNext-Medium" font-size="48.0" fill="#A6AAA8" transform="matrix(1.00, 0.00, -0.00, -1.00, 501.9, 13.0)">2</text><text xml:space="preserve" font-family="AvenirNext-Medium" font-size="48.0" fill="#A6AAA8" transform="matrix(1.00, 0.00, -0.00, -1.00, 530.5, 13.0)">0</text><text xml:space="preserve" font-family="AvenirNext-Medium" font-size="48.0" fill="#A6AAA8" transform="matrix(1.00, 0.00, -0.00, -1.00, 559.1, 13.0)">0</text><text xml:space="preserve" font-family="AvenirNext-Medium" font-size="48.0" fill="#A6AAA8" transform="matrix(1.00, 0.00, -0.00, -1.00, 587.6, 13.0)">8</text><text xml:space="preserve" font-family="AvenirNext-Medium" font-size="48.0" fill="#A6AAA8" transform="matrix(1.00, 0.00, -0.00, -1.00, 616.2, 13.0)">.</text></g></svg>