<?xml version="1.0" encoding="UTF-8" standalone="no"?><svg xmlns="http://www.w3.org/2000/svg" xmlns:xlink="http://www.w3.org/1999/xlink" clip-rule="evenodd" stroke-miterlimit="4.00" viewBox="0 0 1655 53"><desc>SVG generated by Keynote</desc><defs></defs><g transform="matrix(1.00, 0.00, -0.00, -1.00, 0.0, 53.0)"><text xml:space="preserve" font-family="AvenirNext-Medium" font-size="48.0" fill="#A6AAA8" transform="matrix(1.00, 0.00, -0.00, -1.00, 1.0, 14.0)">W</text><text xml:space="preserve" font-family="AvenirNext-Medium" font-size="48.0" fill="#A6AAA8" transform="matrix(1.00, 0.00, -0.00, -1.00, 46.7, 14.0)">o</text><text xml:space="preserve" font-family="AvenirNext-Medium" font-size="48.0" fill="#A6AAA8" transform="matrix(1.00, 0.00, -0.00, -1.00, 76.0, 14.0)">r</text><text xml:space="preserve" font-family="AvenirNext-Medium" font-size="48.0" fill="#A6AAA8" transform="matrix(1.00, 0.00, -0.00, -1.00, 93.4, 14.0)">k</text><text xml:space="preserve" font-family="AvenirNext-Medium" font-size="48.0" fill="#A6AAA8" transform="matrix(1.00, 0.00, -0.00, -1.00, 118.6, 14.0)">i</text><text xml:space="preserve" font-family="AvenirNext-Medium" font-size="48.0" fill="#A6AAA8" transform="matrix(1.00, 0.00, -0.00, -1.00, 131.1, 14.0)">n</text><text xml:space="preserve" font-family="AvenirNext-Medium" font-size="48.0" fill="#A6AAA8" transform="matrix(1.00, 0.00, -0.00, -1.00, 159.0, 14.0)">g</text><text xml:space="preserve" font-family="AvenirNext-Medium" font-size="48.0" fill="#A6AAA8" transform="matrix(1.00, 0.00, -0.00, -1.00, 189.4, 14.0)"> </text><text xml:space="preserve" font-family="AvenirNext-Medium" font-size="48.0" fill="#A6AAA8" transform="matrix(1.00, 0.00, -0.00, -1.00, 201.4, 14.0)">G</text><text xml:space="preserve" font-family="AvenirNext-Medium" font-size="48.0" fill="#A6AAA8" transform="matrix(1.00, 0.00, -0.00, -1.00, 238.7, 14.0)">r</text><text xml:space="preserve" font-family="AvenirNext-Medium" font-size="48.0" fill="#A6AAA8" transform="matrix(1.00, 0.00, -0.00, -1.00, 255.2, 14.0)">o</text><text xml:space="preserve" font-family="AvenirNext-Medium" font-size="48.0" fill="#A6AAA8" transform="matrix(1.00, 0.00, -0.00, -1.00, 284.5, 14.0)">u</text><text xml:space="preserve" font-family="AvenirNext-Medium" font-size="48.0" fill="#A6AAA8" transform="matrix(1.00, 0.00, -0.00, -1.00, 312.4, 14.0)">p</text><text xml:space="preserve" font-family="AvenirNext-Medium" font-size="48.0" fill="#A6AAA8" transform="matrix(1.00, 0.00, -0.00, -1.00, 342.9, 14.0)"> </text><text xml:space="preserve" font-family="AvenirNext-Medium" font-size="48.0" fill="#A6AAA8" transform="matrix(1.00, 0.00, -0.00, -1.00, 354.9, 14.0)">I</text><text xml:space="preserve" font-family="AvenirNext-Medium" font-size="48.0" fill="#A6AAA8" transform="matrix(1.00, 0.00, -0.00, -1.00, 367.9, 14.0)"> </text><text xml:space="preserve" font-family="AvenirNext-Medium" font-size="48.0" fill="#A6AAA8" transform="matrix(1.00, 0.00, -0.00, -1.00, 379.9, 14.0)">t</text><text xml:space="preserve" font-family="AvenirNext-Medium" font-size="48.0" fill="#A6AAA8" transform="matrix(1.00, 0.00, -0.00, -1.00, 395.7, 14.0)">o</text><text xml:space="preserve" font-family="AvenirNext-Medium" font-size="48.0" fill="#A6AAA8" transform="matrix(1.00, 0.00, -0.00, -1.00, 424.9, 14.0)"> </text><text xml:space="preserve" font-family="AvenirNext-Medium" font-size="48.0" fill="#A6AAA8" transform="matrix(1.00, 0.00, -0.00, -1.00, 436.9, 14.0)">t</text><text xml:space="preserve" font-family="AvenirNext-Medium" font-size="48.0" fill="#A6AAA8" transform="matrix(1.00, 0.00, -0.00, -1.00, 452.7, 14.0)">h</text><text xml:space="preserve" font-family="AvenirNext-Medium" font-size="48.0" fill="#A6AAA8" transform="matrix(1.00, 0.00, -0.00, -1.00, 480.8, 14.0)">e</text><text xml:space="preserve" font-family="AvenirNext-Medium" font-size="48.0" fill="#A6AAA8" transform="matrix(1.00, 0.00, -0.00, -1.00, 508.3, 14.0)"> </text><text xml:space="preserve" font-family="AvenirNext-Medium" font-size="48.0" fill="#A6AAA8" transform="matrix(1.00, 0.00, -0.00, -1.00, 520.3, 14.0)">F</text><text xml:space="preserve" font-family="AvenirNext-Medium" font-size="48.0" fill="#A6AAA8" transform="matrix(1.00, 0.00, -0.00, -1.00, 545.2, 14.0)">o</text><text xml:space="preserve" font-family="AvenirNext-Medium" font-size="48.0" fill="#A6AAA8" transform="matrix(1.00, 0.00, -0.00, -1.00, 574.5, 14.0)">u</text><text xml:space="preserve" font-family="AvenirNext-Medium" font-size="48.0" fill="#A6AAA8" transform="matrix(1.00, 0.00, -0.00, -1.00, 602.4, 14.0)">r</text><text xml:space="preserve" font-family="AvenirNext-Medium" font-size="48.0" fill="#A6AAA8" transform="matrix(1.00, 0.00, -0.00, -1.00, 619.2, 14.0)">t</text><text xml:space="preserve" font-family="AvenirNext-Medium" font-size="48.0" fill="#A6AAA8" transform="matrix(1.00, 0.00, -0.00, -1.00, 635.0, 14.0)">h</text><text xml:space="preserve" font-family="AvenirNext-Medium" font-size="48.0" fill="#A6AAA8" transform="matrix(1.00, 0.00, -0.00, -1.00, 663.1, 14.0)"> </text><text xml:space="preserve" font-family="AvenirNext-Medium" font-size="48.0" fill="#A6AAA8" transform="matrix(1.00, 0.00, -0.00, -1.00, 674.2, 14.0)">A</text><text xml:space="preserve" font-family="AvenirNext-Medium" font-size="48.0" fill="#A6AAA8" transform="matrix(1.00, 0.00, -0.00, -1.00, 708.3, 14.0)">s</text><text xml:space="preserve" font-family="AvenirNext-Medium" font-size="48.0" fill="#A6AAA8" transform="matrix(1.00, 0.00, -0.00, -1.00, 729.6, 14.0)">s</text><text xml:space="preserve" font-family="AvenirNext-Medium" font-size="48.0" fill="#A6AAA8" transform="matrix(1.00, 0.00, -0.00, -1.00, 751.0, 14.0)">e</text><text xml:space="preserve" font-family="AvenirNext-Medium" font-size="48.0" fill="#A6AAA8" transform="matrix(1.00, 0.00, -0.00, -1.00, 778.5, 14.0)">s</text><text xml:space="preserve" font-family="AvenirNext-Medium" font-size="48.0" fill="#A6AAA8" transform="matrix(1.00, 0.00, -0.00, -1.00, 799.8, 14.0)">s</text><text xml:space="preserve" font-family="AvenirNext-Medium" font-size="48.0" fill="#A6AAA8" transform="matrix(1.00, 0.00, -0.00, -1.00, 821.1, 14.0)">m</text><text xml:space="preserve" font-family="AvenirNext-Medium" font-size="48.0" fill="#A6AAA8" transform="matrix(1.00, 0.00, -0.00, -1.00, 863.7, 14.0)">e</text><text xml:space="preserve" font-family="AvenirNext-Medium" font-size="48.0" fill="#A6AAA8" transform="matrix(1.00, 0.00, -0.00, -1.00, 891.2, 14.0)">n</text><text xml:space="preserve" font-family="AvenirNext-Medium" font-size="48.0" fill="#A6AAA8" transform="matrix(1.00, 0.00, -0.00, -1.00, 919.1, 14.0)">t</text><text xml:space="preserve" font-family="AvenirNext-Medium" font-size="48.0" fill="#A6AAA8" transform="matrix(1.00, 0.00, -0.00, -1.00, 934.9, 14.0)"> </text><text xml:space="preserve" font-family="AvenirNext-Medium" font-size="48.0" fill="#A6AAA8" transform="matrix(1.00, 0.00, -0.00, -1.00, 946.9, 14.0)">R</text><text xml:space="preserve" font-family="AvenirNext-Medium" font-size="48.0" fill="#A6AAA8" transform="matrix(1.00, 0.00, -0.00, -1.00, 975.8, 14.0)">e</text><text xml:space="preserve" font-family="AvenirNext-Medium" font-size="48.0" fill="#A6AAA8" transform="matrix(1.00, 0.00, -0.00, -1.00, 1003.3, 14.0)">p</text><text xml:space="preserve" font-family="AvenirNext-Medium" font-size="48.0" fill="#A6AAA8" transform="matrix(1.00, 0.00, -0.00, -1.00, 1033.7, 14.0)">o</text><text xml:space="preserve" font-family="AvenirNext-Medium" font-size="48.0" fill="#A6AAA8" transform="matrix(1.00, 0.00, -0.00, -1.00, 1063.0, 14.0)">r</text><text xml:space="preserve" font-family="AvenirNext-Medium" font-size="48.0" fill="#A6AAA8" transform="matrix(1.00, 0.00, -0.00, -1.00, 1079.8, 14.0)">t</text><text xml:space="preserve" font-family="AvenirNext-Medium" font-size="48.0" fill="#A6AAA8" transform="matrix(1.00, 0.00, -0.00, -1.00, 1095.6, 14.0)"> </text><text xml:space="preserve" font-family="AvenirNext-Medium" font-size="48.0" fill="#A6AAA8" transform="matrix(1.00, 0.00, -0.00, -1.00, 1107.6, 14.0)">o</text><text xml:space="preserve" font-family="AvenirNext-Medium" font-size="48.0" fill="#A6AAA8" transform="matrix(1.00, 0.00, -0.00, -1.00, 1136.9, 14.0)">f</text><text xml:space="preserve" font-family="AvenirNext-Medium" font-size="48.0" fill="#A6AAA8" transform="matrix(1.00, 0.00, -0.00, -1.00, 1152.9, 14.0)"> </text><text xml:space="preserve" font-family="AvenirNext-Medium" font-size="48.0" fill="#A6AAA8" transform="matrix(1.00, 0.00, -0.00, -1.00, 1164.9, 14.0)">t</text><text xml:space="preserve" font-family="AvenirNext-Medium" font-size="48.0" fill="#A6AAA8" transform="matrix(1.00, 0.00, -0.00, -1.00, 1180.7, 14.0)">h</text><text xml:space="preserve" font-family="AvenirNext-Medium" font-size="48.0" fill="#A6AAA8" transform="matrix(1.00, 0.00, -0.00, -1.00, 1208.7, 14.0)">e</text><text xml:space="preserve" font-family="AvenirNext-Medium" font-size="48.0" fill="#A6AAA8" transform="matrix(1.00, 0.00, -0.00, -1.00, 1236.2, 14.0)"> </text><text xml:space="preserve" font-family="AvenirNext-Medium" font-size="48.0" fill="#A6AAA8" transform="matrix(1.00, 0.00, -0.00, -1.00, 1248.2, 14.0)">I</text><text xml:space="preserve" font-family="AvenirNext-Medium" font-size="48.0" fill="#A6AAA8" transform="matrix(1.00, 0.00, -0.00, -1.00, 1261.2, 14.0)">n</text><text xml:space="preserve" font-family="AvenirNext-Medium" font-size="48.0" fill="#A6AAA8" transform="matrix(1.00, 0.00, -0.00, -1.00, 1289.2, 14.0)">t</text><text xml:space="preserve" font-family="AvenirNext-Medium" font-size="48.0" fill="#A6AAA8" transform="matrix(1.00, 0.00, -0.00, -1.00, 1305.0, 14.0)">e</text><text xml:space="preserve" font-family="AvenirNext-Medium" font-size="48.0" fill="#A6AAA8" transform="matrix(1.00, 0.00, -0.00, -1.00, 1332.5, 14.0)">r</text><text xml:space="preserve" font-family="AvenirNext-Medium" font-size="48.0" fill="#A6AAA8" transform="matrix(1.00, 0.00, -0.00, -1.00, 1349.0, 14.0)">g</text><text xml:space="preserve" font-family="AvenirNext-Medium" font-size="48.0" fill="#A6AAA8" transform="matrix(1.00, 0.00, -0.00, -1.00, 1379.3, 14.0)">o</text><text xml:space="preserve" font-family="AvenirNext-Medium" font-size="48.0" fill="#A6AAA8" transform="matrix(1.00, 0.00, -0.00, -1.00, 1408.6, 14.0)">v</text><text xml:space="preserve" font-family="AvenirNext-Medium" font-size="48.0" fill="#A6AAA8" transform="matrix(1.00, 0.00, -0.00, -1.00, 1432.8, 14.0)">e</text><text xml:space="preserve" font-family="AvenirNext-Medium" font-size="48.0" fill="#A6AAA8" transform="matrix(1.00, 0.00, -0.00, -1.00, 1460.3, 14.0)">r</text><text xml:space="preserve" font-family="AvenirNext-Medium" font-size="48.0" fill="#A6AAA8" transform="matrix(1.00, 0.00, -0.00, -1.00, 1477.7, 14.0)">n</text><text xml:space="preserve" font-family="AvenirNext-Medium" font-size="48.0" fill="#A6AAA8" transform="matrix(1.00, 0.00, -0.00, -1.00, 1505.6, 14.0)">m</text><text xml:space="preserve" font-family="AvenirNext-Medium" font-size="48.0" fill="#A6AAA8" transform="matrix(1.00, 0.00, -0.00, -1.00, 1548.2, 14.0)">e</text><text xml:space="preserve" font-family="AvenirNext-Medium" font-size="48.0" fill="#A6AAA8" transform="matrix(1.00, 0.00, -0.00, -1.00, 1575.7, 14.0)">n</text><text xml:space="preserve" font-family="AvenirNext-Medium" font-size="48.0" fill="#A6AAA8" transform="matrix(1.00, 0.00, -0.00, -1.00, 1603.6, 14.0)">t</text><text xml:space="preserve" font-family="AvenirNext-Medium" font-size="48.0" fill="#A6AAA8" transform="matrix(1.00, 0.00, -0.00, -1.00, 1619.4, 14.0)">a</text><text xml:space="preserve" font-family="AvenirNext-Medium" font-size="48.0" fill="#A6AAA8" transform="matrix(1.00, 0.00, -0.00, -1.00, 1645.4, 14.0)">l</text></g></svg>