<?xml version="1.0" encoding="UTF-8" standalone="no"?><svg xmlns="http://www.w3.org/2000/svg" xmlns:xlink="http://www.w3.org/1999/xlink" clip-rule="evenodd" stroke-miterlimit="4.00" viewBox="0 0 1568 43"><desc>SVG generated by Keynote</desc><defs></defs><g transform="matrix(1.00, 0.00, -0.00, -1.00, 0.0, 43.0)"><text xml:space="preserve" font-family="AvenirNext-Medium" font-size="48.0" fill="#A6AAA8" transform="matrix(1.00, 0.00, -0.00, -1.00, 0.0, 4.0)">s</text><text xml:space="preserve" font-family="AvenirNext-Medium" font-size="48.0" fill="#A6AAA8" transform="matrix(1.00, 0.00, -0.00, -1.00, 21.3, 4.0)">o</text><text xml:space="preserve" font-family="AvenirNext-Medium" font-size="48.0" fill="#A6AAA8" transform="matrix(1.00, 0.00, -0.00, -1.00, 50.6, 4.0)">u</text><text xml:space="preserve" font-family="AvenirNext-Medium" font-size="48.0" fill="#A6AAA8" transform="matrix(1.00, 0.00, -0.00, -1.00, 78.5, 4.0)">r</text><text xml:space="preserve" font-family="AvenirNext-Medium" font-size="48.0" fill="#A6AAA8" transform="matrix(1.00, 0.00, -0.00, -1.00, 95.0, 4.0)">c</text><text xml:space="preserve" font-family="AvenirNext-Medium" font-size="48.0" fill="#A6AAA8" transform="matrix(1.00, 0.00, -0.00, -1.00, 118.8, 4.0)">e</text><text xml:space="preserve" font-family="AvenirNext-Medium" font-size="48.0" fill="#A6AAA8" transform="matrix(1.00, 0.00, -0.00, -1.00, 146.3, 4.0)">s</text><text xml:space="preserve" font-family="AvenirNext-Medium" font-size="48.0" fill="#A6AAA8" transform="matrix(1.00, 0.00, -0.00, -1.00, 167.6, 4.0)"> </text><text xml:space="preserve" font-family="AvenirNext-Medium" font-size="48.0" fill="#A6AAA8" transform="matrix(1.00, 0.00, -0.00, -1.00, 179.6, 4.0)">i</text><text xml:space="preserve" font-family="AvenirNext-Medium" font-size="48.0" fill="#A6AAA8" transform="matrix(1.00, 0.00, -0.00, -1.00, 192.0, 4.0)">n</text><text xml:space="preserve" font-family="AvenirNext-Medium" font-size="48.0" fill="#A6AAA8" transform="matrix(1.00, 0.00, -0.00, -1.00, 219.9, 4.0)">c</text><text xml:space="preserve" font-family="AvenirNext-Medium" font-size="48.0" fill="#A6AAA8" transform="matrix(1.00, 0.00, -0.00, -1.00, 243.6, 4.0)">l</text><text xml:space="preserve" font-family="AvenirNext-Medium" font-size="48.0" fill="#A6AAA8" transform="matrix(1.00, 0.00, -0.00, -1.00, 256.1, 4.0)">u</text><text xml:space="preserve" font-family="AvenirNext-Medium" font-size="48.0" fill="#A6AAA8" transform="matrix(1.00, 0.00, -0.00, -1.00, 284.1, 4.0)">d</text><text xml:space="preserve" font-family="AvenirNext-Medium" font-size="48.0" fill="#A6AAA8" transform="matrix(1.00, 0.00, -0.00, -1.00, 314.5, 4.0)">e</text><text xml:space="preserve" font-family="AvenirNext-Medium" font-size="48.0" fill="#A6AAA8" transform="matrix(1.00, 0.00, -0.00, -1.00, 342.0, 4.0)">d</text><text xml:space="preserve" font-family="AvenirNext-Medium" font-size="48.0" fill="#A6AAA8" transform="matrix(1.00, 0.00, -0.00, -1.00, 372.5, 4.0)"> </text><text xml:space="preserve" font-family="AvenirNext-Medium" font-size="48.0" fill="#A6AAA8" transform="matrix(1.00, 0.00, -0.00, -1.00, 384.5, 4.0)">i</text><text xml:space="preserve" font-family="AvenirNext-Medium" font-size="48.0" fill="#A6AAA8" transform="matrix(1.00, 0.00, -0.00, -1.00, 397.0, 4.0)">n</text><text xml:space="preserve" font-family="AvenirNext-Medium" font-size="48.0" fill="#A6AAA8" transform="matrix(1.00, 0.00, -0.00, -1.00, 424.9, 4.0)"> </text><text xml:space="preserve" font-family="AvenirNext-Medium" font-size="48.0" fill="#A6AAA8" transform="matrix(1.00, 0.00, -0.00, -1.00, 436.9, 4.0)">t</text><text xml:space="preserve" font-family="AvenirNext-Medium" font-size="48.0" fill="#A6AAA8" transform="matrix(1.00, 0.00, -0.00, -1.00, 452.7, 4.0)">h</text><text xml:space="preserve" font-family="AvenirNext-Medium" font-size="48.0" fill="#A6AAA8" transform="matrix(1.00, 0.00, -0.00, -1.00, 480.7, 4.0)">e</text><text xml:space="preserve" font-family="AvenirNext-Medium" font-size="48.0" fill="#A6AAA8" transform="matrix(1.00, 0.00, -0.00, -1.00, 508.2, 4.0)">s</text><text xml:space="preserve" font-family="AvenirNext-Medium" font-size="48.0" fill="#A6AAA8" transform="matrix(1.00, 0.00, -0.00, -1.00, 529.5, 4.0)">e</text><text xml:space="preserve" font-family="AvenirNext-Medium" font-size="48.0" fill="#A6AAA8" transform="matrix(1.00, 0.00, -0.00, -1.00, 557.0, 4.0)"> </text><text xml:space="preserve" font-family="AvenirNext-Medium" font-size="48.0" fill="#A6AAA8" transform="matrix(1.00, 0.00, -0.00, -1.00, 569.0, 4.0)">e</text><text xml:space="preserve" font-family="AvenirNext-Medium" font-size="48.0" fill="#A6AAA8" transform="matrix(1.00, 0.00, -0.00, -1.00, 596.5, 4.0)">s</text><text xml:space="preserve" font-family="AvenirNext-Medium" font-size="48.0" fill="#A6AAA8" transform="matrix(1.00, 0.00, -0.00, -1.00, 617.9, 4.0)">t</text><text xml:space="preserve" font-family="AvenirNext-Medium" font-size="48.0" fill="#A6AAA8" transform="matrix(1.00, 0.00, -0.00, -1.00, 633.6, 4.0)">i</text><text xml:space="preserve" font-family="AvenirNext-Medium" font-size="48.0" fill="#A6AAA8" transform="matrix(1.00, 0.00, -0.00, -1.00, 646.1, 4.0)">m</text><text xml:space="preserve" font-family="AvenirNext-Medium" font-size="48.0" fill="#A6AAA8" transform="matrix(1.00, 0.00, -0.00, -1.00, 688.7, 4.0)">a</text><text xml:space="preserve" font-family="AvenirNext-Medium" font-size="48.0" fill="#A6AAA8" transform="matrix(1.00, 0.00, -0.00, -1.00, 714.2, 4.0)">t</text><text xml:space="preserve" font-family="AvenirNext-Medium" font-size="48.0" fill="#A6AAA8" transform="matrix(1.00, 0.00, -0.00, -1.00, 730.0, 4.0)">e</text><text xml:space="preserve" font-family="AvenirNext-Medium" font-size="48.0" fill="#A6AAA8" transform="matrix(1.00, 0.00, -0.00, -1.00, 757.5, 4.0)">s</text><text xml:space="preserve" font-family="AvenirNext-Medium" font-size="48.0" fill="#A6AAA8" transform="matrix(1.00, 0.00, -0.00, -1.00, 778.8, 4.0)"> </text><text xml:space="preserve" font-family="AvenirNext-Medium" font-size="48.0" fill="#A6AAA8" transform="matrix(1.00, 0.00, -0.00, -1.00, 790.8, 4.0)">c</text><text xml:space="preserve" font-family="AvenirNext-Medium" font-size="48.0" fill="#A6AAA8" transform="matrix(1.00, 0.00, -0.00, -1.00, 814.5, 4.0)">a</text><text xml:space="preserve" font-family="AvenirNext-Medium" font-size="48.0" fill="#A6AAA8" transform="matrix(1.00, 0.00, -0.00, -1.00, 840.5, 4.0)">n</text><text xml:space="preserve" font-family="AvenirNext-Medium" font-size="48.0" fill="#A6AAA8" transform="matrix(1.00, 0.00, -0.00, -1.00, 868.5, 4.0)"> </text><text xml:space="preserve" font-family="AvenirNext-Medium" font-size="48.0" fill="#A6AAA8" transform="matrix(1.00, 0.00, -0.00, -1.00, 880.5, 4.0)">b</text><text xml:space="preserve" font-family="AvenirNext-Medium" font-size="48.0" fill="#A6AAA8" transform="matrix(1.00, 0.00, -0.00, -1.00, 911.0, 4.0)">e</text><text xml:space="preserve" font-family="AvenirNext-Medium" font-size="48.0" fill="#A6AAA8" transform="matrix(1.00, 0.00, -0.00, -1.00, 938.5, 4.0)"> </text><text xml:space="preserve" font-family="AvenirNext-Medium" font-size="48.0" fill="#A6AAA8" transform="matrix(1.00, 0.00, -0.00, -1.00, 950.5, 4.0)">f</text><text xml:space="preserve" font-family="AvenirNext-Medium" font-size="48.0" fill="#A6AAA8" transform="matrix(1.00, 0.00, -0.00, -1.00, 965.4, 4.0)">o</text><text xml:space="preserve" font-family="AvenirNext-Medium" font-size="48.0" fill="#A6AAA8" transform="matrix(1.00, 0.00, -0.00, -1.00, 994.7, 4.0)">u</text><text xml:space="preserve" font-family="AvenirNext-Medium" font-size="48.0" fill="#A6AAA8" transform="matrix(1.00, 0.00, -0.00, -1.00, 1022.6, 4.0)">n</text><text xml:space="preserve" font-family="AvenirNext-Medium" font-size="48.0" fill="#A6AAA8" transform="matrix(1.00, 0.00, -0.00, -1.00, 1050.5, 4.0)">d</text><text xml:space="preserve" font-family="AvenirNext-Medium" font-size="48.0" fill="#A6AAA8" transform="matrix(1.00, 0.00, -0.00, -1.00, 1081.0, 4.0)"> </text><text xml:space="preserve" font-family="AvenirNext-Medium" font-size="48.0" fill="#A6AAA8" transform="matrix(1.00, 0.00, -0.00, -1.00, 1093.0, 4.0)">i</text><text xml:space="preserve" font-family="AvenirNext-Medium" font-size="48.0" fill="#A6AAA8" transform="matrix(1.00, 0.00, -0.00, -1.00, 1105.4, 4.0)">n</text><text xml:space="preserve" font-family="AvenirNext-Medium" font-size="48.0" fill="#A6AAA8" transform="matrix(1.00, 0.00, -0.00, -1.00, 1133.4, 4.0)"> </text><text xml:space="preserve" font-family="AvenirNext-Medium" font-size="48.0" fill="#A6AAA8" transform="matrix(1.00, 0.00, -0.00, -1.00, 1145.4, 4.0)">t</text><text xml:space="preserve" font-family="AvenirNext-Medium" font-size="48.0" fill="#A6AAA8" transform="matrix(1.00, 0.00, -0.00, -1.00, 1161.2, 4.0)">h</text><text xml:space="preserve" font-family="AvenirNext-Medium" font-size="48.0" fill="#A6AAA8" transform="matrix(1.00, 0.00, -0.00, -1.00, 1189.2, 4.0)">e</text><text xml:space="preserve" font-family="AvenirNext-Medium" font-size="48.0" fill="#A6AAA8" transform="matrix(1.00, 0.00, -0.00, -1.00, 1216.7, 4.0)"> </text><text xml:space="preserve" font-family="AvenirNext-Medium" font-size="48.0" fill="#A6AAA8" transform="matrix(1.00, 0.00, -0.00, -1.00, 1228.7, 4.0)">C</text><text xml:space="preserve" font-family="AvenirNext-Medium" font-size="48.0" fill="#A6AAA8" transform="matrix(1.00, 0.00, -0.00, -1.00, 1262.1, 4.0)">o</text><text xml:space="preserve" font-family="AvenirNext-Medium" font-size="48.0" fill="#A6AAA8" transform="matrix(1.00, 0.00, -0.00, -1.00, 1291.4, 4.0)">n</text><text xml:space="preserve" font-family="AvenirNext-Medium" font-size="48.0" fill="#A6AAA8" transform="matrix(1.00, 0.00, -0.00, -1.00, 1319.3, 4.0)">t</text><text xml:space="preserve" font-family="AvenirNext-Medium" font-size="48.0" fill="#A6AAA8" transform="matrix(1.00, 0.00, -0.00, -1.00, 1335.1, 4.0)">r</text><text xml:space="preserve" font-family="AvenirNext-Medium" font-size="48.0" fill="#A6AAA8" transform="matrix(1.00, 0.00, -0.00, -1.00, 1352.5, 4.0)">i</text><text xml:space="preserve" font-family="AvenirNext-Medium" font-size="48.0" fill="#A6AAA8" transform="matrix(1.00, 0.00, -0.00, -1.00, 1364.9, 4.0)">b</text><text xml:space="preserve" font-family="AvenirNext-Medium" font-size="48.0" fill="#A6AAA8" transform="matrix(1.00, 0.00, -0.00, -1.00, 1395.5, 4.0)">u</text><text xml:space="preserve" font-family="AvenirNext-Medium" font-size="48.0" fill="#A6AAA8" transform="matrix(1.00, 0.00, -0.00, -1.00, 1423.4, 4.0)">t</text><text xml:space="preserve" font-family="AvenirNext-Medium" font-size="48.0" fill="#A6AAA8" transform="matrix(1.00, 0.00, -0.00, -1.00, 1439.2, 4.0)">i</text><text xml:space="preserve" font-family="AvenirNext-Medium" font-size="48.0" fill="#A6AAA8" transform="matrix(1.00, 0.00, -0.00, -1.00, 1451.6, 4.0)">o</text><text xml:space="preserve" font-family="AvenirNext-Medium" font-size="48.0" fill="#A6AAA8" transform="matrix(1.00, 0.00, -0.00, -1.00, 1480.9, 4.0)">n</text><text xml:space="preserve" font-family="AvenirNext-Medium" font-size="48.0" fill="#A6AAA8" transform="matrix(1.00, 0.00, -0.00, -1.00, 1508.8, 4.0)"> </text><text xml:space="preserve" font-family="AvenirNext-Medium" font-size="48.0" fill="#A6AAA8" transform="matrix(1.00, 0.00, -0.00, -1.00, 1520.8, 4.0)">o</text><text xml:space="preserve" font-family="AvenirNext-Medium" font-size="48.0" fill="#A6AAA8" transform="matrix(1.00, 0.00, -0.00, -1.00, 1550.1, 4.0)">f</text></g></svg>