<?xml version="1.0" encoding="UTF-8" standalone="no"?><svg xmlns="http://www.w3.org/2000/svg" xmlns:xlink="http://www.w3.org/1999/xlink" clip-rule="evenodd" stroke-miterlimit="4.00" viewBox="0 0 1617 71"><desc>SVG generated by Keynote</desc><defs></defs><g transform="matrix(1.00, 0.00, -0.00, -1.00, 0.0, 71.0)"><text xml:space="preserve" font-family="LucidaGrande" font-size="60.0" fill="#34A4DA" transform="matrix(1.00, 0.00, -0.00, -1.00, 0.0, 13.0)">▸</text><text xml:space="preserve" font-family="AvenirNext-Medium" font-size="48.0" fill="#A6AAA8" transform="matrix(1.00, 0.00, -0.00, -1.00, 50.0, 20.0)">S</text><text xml:space="preserve" font-family="AvenirNext-Medium" font-size="48.0" fill="#A6AAA8" transform="matrix(1.00, 0.00, -0.00, -1.00, 77.3, 20.0)">o</text><text xml:space="preserve" font-family="AvenirNext-Medium" font-size="48.0" fill="#A6AAA8" transform="matrix(1.00, 0.00, -0.00, -1.00, 106.6, 20.0)">u</text><text xml:space="preserve" font-family="AvenirNext-Medium" font-size="48.0" fill="#A6AAA8" transform="matrix(1.00, 0.00, -0.00, -1.00, 134.5, 20.0)">r</text><text xml:space="preserve" font-family="AvenirNext-Medium" font-size="48.0" fill="#A6AAA8" transform="matrix(1.00, 0.00, -0.00, -1.00, 151.0, 20.0)">c</text><text xml:space="preserve" font-family="AvenirNext-Medium" font-size="48.0" fill="#A6AAA8" transform="matrix(1.00, 0.00, -0.00, -1.00, 174.8, 20.0)">e</text><text xml:space="preserve" font-family="AvenirNext-Medium" font-size="48.0" fill="#A6AAA8" transform="matrix(1.00, 0.00, -0.00, -1.00, 202.3, 20.0)"> </text><text xml:space="preserve" font-family="AvenirNext-Medium" font-size="48.0" fill="#A6AAA8" transform="matrix(1.00, 0.00, -0.00, -1.00, 214.3, 20.0)">o</text><text xml:space="preserve" font-family="AvenirNext-Medium" font-size="48.0" fill="#A6AAA8" transform="matrix(1.00, 0.00, -0.00, -1.00, 243.5, 20.0)">f</text><text xml:space="preserve" font-family="AvenirNext-Medium" font-size="48.0" fill="#A6AAA8" transform="matrix(1.00, 0.00, -0.00, -1.00, 259.6, 20.0)"> </text><text xml:space="preserve" font-family="AvenirNext-Medium" font-size="48.0" fill="#A6AAA8" transform="matrix(1.00, 0.00, -0.00, -1.00, 271.6, 20.0)">d</text><text xml:space="preserve" font-family="AvenirNext-Medium" font-size="48.0" fill="#A6AAA8" transform="matrix(1.00, 0.00, -0.00, -1.00, 302.0, 20.0)">a</text><text xml:space="preserve" font-family="AvenirNext-Medium" font-size="48.0" fill="#A6AAA8" transform="matrix(1.00, 0.00, -0.00, -1.00, 327.6, 20.0)">t</text><text xml:space="preserve" font-family="AvenirNext-Medium" font-size="48.0" fill="#A6AAA8" transform="matrix(1.00, 0.00, -0.00, -1.00, 343.4, 20.0)">a</text><text xml:space="preserve" font-family="AvenirNext-Medium" font-size="48.0" fill="#A6AAA8" transform="matrix(1.00, 0.00, -0.00, -1.00, 369.4, 20.0)">:</text><text xml:space="preserve" font-family="AvenirNext-Medium" font-size="48.0" fill="#A6AAA8" transform="matrix(1.00, 0.00, -0.00, -1.00, 383.8, 20.0)"> </text><text xml:space="preserve" font-family="AvenirNext-Medium" font-size="48.0" fill="#A6AAA8" transform="matrix(1.00, 0.00, -0.00, -1.00, 395.8, 20.0)">B</text><text xml:space="preserve" font-family="AvenirNext-Medium" font-size="48.0" fill="#A6AAA8" transform="matrix(1.00, 0.00, -0.00, -1.00, 426.6, 20.0)">o</text><text xml:space="preserve" font-family="AvenirNext-Medium" font-size="48.0" fill="#A6AAA8" transform="matrix(1.00, 0.00, -0.00, -1.00, 455.9, 20.0)">d</text><text xml:space="preserve" font-family="AvenirNext-Medium" font-size="48.0" fill="#A6AAA8" transform="matrix(1.00, 0.00, -0.00, -1.00, 486.4, 20.0)">e</text><text xml:space="preserve" font-family="AvenirNext-Medium" font-size="48.0" fill="#A6AAA8" transform="matrix(1.00, 0.00, -0.00, -1.00, 513.9, 20.0)">n</text><text xml:space="preserve" font-family="AvenirNext-Medium" font-size="48.0" fill="#A6AAA8" transform="matrix(1.00, 0.00, -0.00, -1.00, 541.8, 20.0)">,</text><text xml:space="preserve" font-family="AvenirNext-Medium" font-size="48.0" fill="#A6AAA8" transform="matrix(1.00, 0.00, -0.00, -1.00, 552.8, 20.0)"> </text><text xml:space="preserve" font-family="AvenirNext-Medium" font-size="48.0" fill="#A6AAA8" transform="matrix(1.00, 0.00, -0.00, -1.00, 563.7, 20.0)">T</text><text xml:space="preserve" font-family="AvenirNext-Medium" font-size="48.0" fill="#A6AAA8" transform="matrix(1.00, 0.00, -0.00, -1.00, 587.3, 20.0)">.</text><text xml:space="preserve" font-family="AvenirNext-Medium" font-size="48.0" fill="#A6AAA8" transform="matrix(1.00, 0.00, -0.00, -1.00, 599.7, 20.0)">A</text><text xml:space="preserve" font-family="AvenirNext-Medium" font-size="48.0" fill="#A6AAA8" transform="matrix(1.00, 0.00, -0.00, -1.00, 633.9, 20.0)">.</text><text xml:space="preserve" font-family="AvenirNext-Medium" font-size="48.0" fill="#A6AAA8" transform="matrix(1.00, 0.00, -0.00, -1.00, 646.4, 20.0)">,</text><text xml:space="preserve" font-family="AvenirNext-Medium" font-size="48.0" fill="#A6AAA8" transform="matrix(1.00, 0.00, -0.00, -1.00, 657.4, 20.0)"> </text><text xml:space="preserve" font-family="AvenirNext-Medium" font-size="48.0" fill="#A6AAA8" transform="matrix(1.00, 0.00, -0.00, -1.00, 669.4, 20.0)">G</text><text xml:space="preserve" font-family="AvenirNext-Medium" font-size="48.0" fill="#A6AAA8" transform="matrix(1.00, 0.00, -0.00, -1.00, 706.7, 20.0)">.</text><text xml:space="preserve" font-family="AvenirNext-Medium" font-size="48.0" fill="#A6AAA8" transform="matrix(1.00, 0.00, -0.00, -1.00, 717.8, 20.0)"> </text><text xml:space="preserve" font-family="AvenirNext-Medium" font-size="48.0" fill="#A6AAA8" transform="matrix(1.00, 0.00, -0.00, -1.00, 729.8, 20.0)">M</text><text xml:space="preserve" font-family="AvenirNext-Medium" font-size="48.0" fill="#A6AAA8" transform="matrix(1.00, 0.00, -0.00, -1.00, 773.1, 20.0)">a</text><text xml:space="preserve" font-family="AvenirNext-Medium" font-size="48.0" fill="#A6AAA8" transform="matrix(1.00, 0.00, -0.00, -1.00, 799.1, 20.0)">r</text><text xml:space="preserve" font-family="AvenirNext-Medium" font-size="48.0" fill="#A6AAA8" transform="matrix(1.00, 0.00, -0.00, -1.00, 816.5, 20.0)">l</text><text xml:space="preserve" font-family="AvenirNext-Medium" font-size="48.0" fill="#A6AAA8" transform="matrix(1.00, 0.00, -0.00, -1.00, 829.0, 20.0)">a</text><text xml:space="preserve" font-family="AvenirNext-Medium" font-size="48.0" fill="#A6AAA8" transform="matrix(1.00, 0.00, -0.00, -1.00, 855.0, 20.0)">n</text><text xml:space="preserve" font-family="AvenirNext-Medium" font-size="48.0" fill="#A6AAA8" transform="matrix(1.00, 0.00, -0.00, -1.00, 882.9, 20.0)">d</text><text xml:space="preserve" font-family="AvenirNext-Medium" font-size="48.0" fill="#A6AAA8" transform="matrix(1.00, 0.00, -0.00, -1.00, 913.4, 20.0)">,</text><text xml:space="preserve" font-family="AvenirNext-Medium" font-size="48.0" fill="#A6AAA8" transform="matrix(1.00, 0.00, -0.00, -1.00, 924.5, 20.0)"> </text><text xml:space="preserve" font-family="AvenirNext-Medium" font-size="48.0" fill="#A6AAA8" transform="matrix(1.00, 0.00, -0.00, -1.00, 936.5, 20.0)">a</text><text xml:space="preserve" font-family="AvenirNext-Medium" font-size="48.0" fill="#A6AAA8" transform="matrix(1.00, 0.00, -0.00, -1.00, 962.5, 20.0)">n</text><text xml:space="preserve" font-family="AvenirNext-Medium" font-size="48.0" fill="#A6AAA8" transform="matrix(1.00, 0.00, -0.00, -1.00, 990.4, 20.0)">d</text><text xml:space="preserve" font-family="AvenirNext-Medium" font-size="48.0" fill="#A6AAA8" transform="matrix(1.00, 0.00, -0.00, -1.00, 1020.9, 20.0)"> </text><text xml:space="preserve" font-family="AvenirNext-Medium" font-size="48.0" fill="#A6AAA8" transform="matrix(1.00, 0.00, -0.00, -1.00, 1032.9, 20.0)">R</text><text xml:space="preserve" font-family="AvenirNext-Medium" font-size="48.0" fill="#A6AAA8" transform="matrix(1.00, 0.00, -0.00, -1.00, 1062.4, 20.0)">.</text><text xml:space="preserve" font-family="AvenirNext-Medium" font-size="48.0" fill="#A6AAA8" transform="matrix(1.00, 0.00, -0.00, -1.00, 1074.8, 20.0)">J</text><text xml:space="preserve" font-family="AvenirNext-Medium" font-size="48.0" fill="#A6AAA8" transform="matrix(1.00, 0.00, -0.00, -1.00, 1098.6, 20.0)">.</text><text xml:space="preserve" font-family="AvenirNext-Medium" font-size="48.0" fill="#A6AAA8" transform="matrix(1.00, 0.00, -0.00, -1.00, 1109.6, 20.0)"> </text><text xml:space="preserve" font-family="AvenirNext-Medium" font-size="48.0" fill="#A6AAA8" transform="matrix(1.00, 0.00, -0.00, -1.00, 1120.8, 20.0)">A</text><text xml:space="preserve" font-family="AvenirNext-Medium" font-size="48.0" fill="#A6AAA8" transform="matrix(1.00, 0.00, -0.00, -1.00, 1154.9, 20.0)">n</text><text xml:space="preserve" font-family="AvenirNext-Medium" font-size="48.0" fill="#A6AAA8" transform="matrix(1.00, 0.00, -0.00, -1.00, 1182.8, 20.0)">d</text><text xml:space="preserve" font-family="AvenirNext-Medium" font-size="48.0" fill="#A6AAA8" transform="matrix(1.00, 0.00, -0.00, -1.00, 1213.3, 20.0)">r</text><text xml:space="preserve" font-family="AvenirNext-Medium" font-size="48.0" fill="#A6AAA8" transform="matrix(1.00, 0.00, -0.00, -1.00, 1229.8, 20.0)">e</text><text xml:space="preserve" font-family="AvenirNext-Medium" font-size="48.0" fill="#A6AAA8" transform="matrix(1.00, 0.00, -0.00, -1.00, 1257.3, 20.0)">s</text><text xml:space="preserve" font-family="AvenirNext-Medium" font-size="48.0" fill="#A6AAA8" transform="matrix(1.00, 0.00, -0.00, -1.00, 1278.7, 20.0)"> </text><text xml:space="preserve" font-family="AvenirNext-Medium" font-size="48.0" fill="#A6AAA8" transform="matrix(1.00, 0.00, -0.00, -1.00, 1290.7, 20.0)">(</text><text xml:space="preserve" font-family="AvenirNext-Medium" font-size="48.0" fill="#A6AAA8" transform="matrix(1.00, 0.00, -0.00, -1.00, 1305.8, 20.0)">2</text><text xml:space="preserve" font-family="AvenirNext-Medium" font-size="48.0" fill="#A6AAA8" transform="matrix(1.00, 0.00, -0.00, -1.00, 1334.3, 20.0)">0</text><text xml:space="preserve" font-family="AvenirNext-Medium" font-size="48.0" fill="#A6AAA8" transform="matrix(1.00, 0.00, -0.00, -1.00, 1362.9, 20.0)">1</text><text xml:space="preserve" font-family="AvenirNext-Medium" font-size="48.0" fill="#A6AAA8" transform="matrix(1.00, 0.00, -0.00, -1.00, 1391.5, 20.0)">0</text><text xml:space="preserve" font-family="AvenirNext-Medium" font-size="48.0" fill="#A6AAA8" transform="matrix(1.00, 0.00, -0.00, -1.00, 1420.0, 20.0)">)</text><text xml:space="preserve" font-family="AvenirNext-Medium" font-size="48.0" fill="#A6AAA8" transform="matrix(1.00, 0.00, -0.00, -1.00, 1435.1, 20.0)">.</text><text xml:space="preserve" font-family="AvenirNext-Medium" font-size="48.0" fill="#A6AAA8" transform="matrix(1.00, 0.00, -0.00, -1.00, 1446.2, 20.0)"> </text><text xml:space="preserve" font-family="AvenirNext-Medium" font-size="48.0" fill="#A6AAA8" transform="matrix(1.00, 0.00, -0.00, -1.00, 1458.2, 20.0)">G</text><text xml:space="preserve" font-family="AvenirNext-Medium" font-size="48.0" fill="#A6AAA8" transform="matrix(1.00, 0.00, -0.00, -1.00, 1495.5, 20.0)">l</text><text xml:space="preserve" font-family="AvenirNext-Medium" font-size="48.0" fill="#A6AAA8" transform="matrix(1.00, 0.00, -0.00, -1.00, 1508.0, 20.0)">o</text><text xml:space="preserve" font-family="AvenirNext-Medium" font-size="48.0" fill="#A6AAA8" transform="matrix(1.00, 0.00, -0.00, -1.00, 1537.3, 20.0)">b</text><text xml:space="preserve" font-family="AvenirNext-Medium" font-size="48.0" fill="#A6AAA8" transform="matrix(1.00, 0.00, -0.00, -1.00, 1567.8, 20.0)">a</text><text xml:space="preserve" font-family="AvenirNext-Medium" font-size="48.0" fill="#A6AAA8" transform="matrix(1.00, 0.00, -0.00, -1.00, 1593.8, 20.0)">l</text><text xml:space="preserve" font-family="AvenirNext-Medium" font-size="48.0" fill="#A6AAA8" transform="matrix(1.00, 0.00, -0.00, -1.00, 1606.3, 20.0)">,</text></g></svg>