<?xml version="1.0" encoding="UTF-8" standalone="no"?><svg xmlns="http://www.w3.org/2000/svg" xmlns:xlink="http://www.w3.org/1999/xlink" clip-rule="evenodd" stroke-miterlimit="4.00" viewBox="0 0 1920 1080"><desc>SVG generated by Keynote</desc><defs></defs><g transform="matrix(1.00, 0.00, -0.00, -1.00, 0.0, 1080.0)"><path d="M 0.0 1080.0 L 1920.0 1080.0 L 1920.0 0.0 L 0.0 0.0 Z M 0.0 1080.0 " fill="#212121"></path><g><clipPath id="clip-15"><path d="M 960.0 1080.0 L 1920.0 1080.0 L 1920.0 542.0 L 960.0 542.0 Z M 960.0 1080.0 "></path></clipPath><g clip-path="url(#clip-15)"><image xlink:href="../../1646CF7E-43E9-4AFA-AC50-5C724AB42C39/assets/F02618F89330399263F3020AF060E649.jpeg" width="960.00" height="564.00" transform="matrix(1.00, 0.00, -0.00, -1.00, 960.0, 1094.0)"></image></g></g><g><clipPath id="clip-16"><path d="M 960.0 537.0 L 1920.0 537.0 L 1920.0 0.0 L 960.0 0.0 Z M 960.0 537.0 "></path></clipPath><g clip-path="url(#clip-16)"><image xlink:href="../../1646CF7E-43E9-4AFA-AC50-5C724AB42C39/assets/02C5F42C87ACEC09F42296DC34F03267.jpeg" width="960.00" height="653.00" transform="matrix(1.00, 0.00, -0.00, -1.00, 960.0, 572.0)"></image></g></g><g><clipPath id="clip-17"><path d="M 0.0 1080.0 L 955.0 1080.0 L 955.0 0.0 L 0.0 0.0 Z M 0.0 1080.0 "></path></clipPath><g clip-path="url(#clip-17)"><image xlink:href="../../1646CF7E-43E9-4AFA-AC50-5C724AB42C39/assets/C3331944D9C154E4BE198C56551A6E78.jpeg" width="696.00" height="769.00" transform="matrix(1.41, 0.00, -0.00, -1.40, -15.0, 1080.0)"></image></g></g></g></svg>