<?xml version="1.0" encoding="UTF-8" standalone="no"?><svg xmlns="http://www.w3.org/2000/svg" xmlns:xlink="http://www.w3.org/1999/xlink" clip-rule="evenodd" stroke-miterlimit="4.00" viewBox="0 0 1920 1080"><desc>SVG generated by Keynote</desc><defs></defs><g transform="matrix(1.00, 0.00, -0.00, -1.00, 0.0, 1080.0)"><path d="M 0.0 1080.0 L 1920.0 1080.0 L 1920.0 0.0 L 0.0 0.0 Z M 0.0 1080.0 " fill="#212121"></path><path d="M 0.0 0.0 L 1800.0 0.0 " fill="none" stroke="#A6AAA9" stroke-width="2.00" transform="matrix(1.00, 0.00, 0.00, -1.00, 60.0, 970.0)"></path><text xml:space="preserve" font-family="DINAlternate-Bold" font-weight="bold" font-size="36.0" fill="#838686" transform="matrix(1.00, 0.00, -0.00, -1.00, 64.0, 992.0)">L</text><text xml:space="preserve" font-family="DINAlternate-Bold" font-weight="bold" font-size="36.0" fill="#838686" transform="matrix(1.00, 0.00, -0.00, -1.00, 85.8, 992.0)">A</text><text xml:space="preserve" font-family="DINAlternate-Bold" font-weight="bold" font-size="36.0" fill="#838686" transform="matrix(1.00, 0.00, -0.00, -1.00, 108.9, 992.0)">G</text><text xml:space="preserve" font-family="DINAlternate-Bold" font-weight="bold" font-size="36.0" fill="#838686" transform="matrix(1.00, 0.00, -0.00, -1.00, 132.7, 992.0)">A</text><text xml:space="preserve" font-family="DINAlternate-Bold" font-weight="bold" font-size="36.0" fill="#838686" transform="matrix(1.00, 0.00, -0.00, -1.00, 156.5, 992.0)">R</text><text xml:space="preserve" font-family="DINAlternate-Bold" font-weight="bold" font-size="36.0" fill="#838686" transform="matrix(1.00, 0.00, -0.00, -1.00, 180.2, 992.0)">E</text><text xml:space="preserve" font-family="DINAlternate-Bold" font-weight="bold" font-size="36.0" fill="#838686" transform="matrix(1.00, 0.00, -0.00, -1.00, 202.1, 992.0)">S</text><text xml:space="preserve" font-family="DINAlternate-Bold" font-weight="bold" font-size="36.0" fill="#838686" transform="matrix(1.00, 0.00, -0.00, -1.00, 224.5, 992.0)"> </text><text xml:space="preserve" font-family="DINAlternate-Bold" font-weight="bold" font-size="36.0" fill="#838686" transform="matrix(1.00, 0.00, -0.00, -1.00, 234.9, 992.0)">C</text><text xml:space="preserve" font-family="DINAlternate-Bold" font-weight="bold" font-size="36.0" fill="#838686" transform="matrix(1.00, 0.00, -0.00, -1.00, 256.7, 992.0)">O</text><text xml:space="preserve" font-family="DINAlternate-Bold" font-weight="bold" font-size="36.0" fill="#838686" transform="matrix(1.00, 0.00, -0.00, -1.00, 280.5, 992.0)">R</text><text xml:space="preserve" font-family="DINAlternate-Bold" font-weight="bold" font-size="36.0" fill="#838686" transform="matrix(1.00, 0.00, -0.00, -1.00, 304.2, 992.0)">P</text><text xml:space="preserve" font-family="DINAlternate-Bold" font-weight="bold" font-size="36.0" fill="#838686" transform="matrix(1.00, 0.00, -0.00, -1.00, 322.7, 992.0)">.</text><text xml:space="preserve" font-family="DINCondensed-Bold" font-weight="bold" font-size="72.2" fill="#34A4DA" transform="matrix(1.00, 0.00, -0.00, -1.00, 64.0, 855.0)">D</text><text xml:space="preserve" font-family="DINCondensed-Bold" font-weight="bold" font-size="72.2" fill="#34A4DA" transform="matrix(1.00, 0.00, -0.00, -1.00, 94.8, 855.0)">E</text><text xml:space="preserve" font-family="DINCondensed-Bold" font-weight="bold" font-size="72.2" fill="#34A4DA" transform="matrix(1.00, 0.00, -0.00, -1.00, 121.5, 855.0)">V</text><text xml:space="preserve" font-family="DINCondensed-Bold" font-weight="bold" font-size="72.2" fill="#34A4DA" transform="matrix(1.00, 0.00, -0.00, -1.00, 150.9, 855.0)">E</text><text xml:space="preserve" font-family="DINCondensed-Bold" font-weight="bold" font-size="72.2" fill="#34A4DA" transform="matrix(1.00, 0.00, -0.00, -1.00, 177.6, 855.0)">L</text><text xml:space="preserve" font-family="DINCondensed-Bold" font-weight="bold" font-size="72.2" fill="#34A4DA" transform="matrix(1.00, 0.00, -0.00, -1.00, 204.3, 855.0)">O</text><text xml:space="preserve" font-family="DINCondensed-Bold" font-weight="bold" font-size="72.2" fill="#34A4DA" transform="matrix(1.00, 0.00, -0.00, -1.00, 235.1, 855.0)">P</text><text xml:space="preserve" font-family="DINCondensed-Bold" font-weight="bold" font-size="72.2" fill="#34A4DA" transform="matrix(1.00, 0.00, -0.00, -1.00, 264.5, 855.0)">I</text><text xml:space="preserve" font-family="DINCondensed-Bold" font-weight="bold" font-size="72.2" fill="#34A4DA" transform="matrix(1.00, 0.00, -0.00, -1.00, 279.2, 855.0)">N</text><text xml:space="preserve" font-family="DINCondensed-Bold" font-weight="bold" font-size="72.2" fill="#34A4DA" transform="matrix(1.00, 0.00, -0.00, -1.00, 311.2, 855.0)">G</text><text xml:space="preserve" font-family="DINCondensed-Bold" font-weight="bold" font-size="72.2" fill="#34A4DA" transform="matrix(1.00, 0.00, -0.00, -1.00, 342.0, 855.0)"> </text><text xml:space="preserve" font-family="DINCondensed-Bold" font-weight="bold" font-size="72.2" fill="#34A4DA" transform="matrix(1.00, 0.00, -0.00, -1.00, 355.4, 855.0)">A</text><text xml:space="preserve" font-family="DINCondensed-Bold" font-weight="bold" font-size="72.2" fill="#34A4DA" transform="matrix(1.00, 0.00, -0.00, -1.00, 384.8, 855.0)"> </text><text xml:space="preserve" font-family="DINCondensed-Bold" font-weight="bold" font-size="72.2" fill="#34A4DA" transform="matrix(1.00, 0.00, -0.00, -1.00, 398.3, 855.0)">B</text><text xml:space="preserve" font-family="DINCondensed-Bold" font-weight="bold" font-size="72.2" fill="#34A4DA" transform="matrix(1.00, 0.00, -0.00, -1.00, 429.0, 855.0)">E</text><text xml:space="preserve" font-family="DINCondensed-Bold" font-weight="bold" font-size="72.2" fill="#34A4DA" transform="matrix(1.00, 0.00, -0.00, -1.00, 455.7, 855.0)">T</text><text xml:space="preserve" font-family="DINCondensed-Bold" font-weight="bold" font-size="72.2" fill="#34A4DA" transform="matrix(1.00, 0.00, -0.00, -1.00, 479.7, 855.0)">T</text><text xml:space="preserve" font-family="DINCondensed-Bold" font-weight="bold" font-size="72.2" fill="#34A4DA" transform="matrix(1.00, 0.00, -0.00, -1.00, 503.7, 855.0)">E</text><text xml:space="preserve" font-family="DINCondensed-Bold" font-weight="bold" font-size="72.2" fill="#34A4DA" transform="matrix(1.00, 0.00, -0.00, -1.00, 530.4, 855.0)">R</text><text xml:space="preserve" font-family="DINCondensed-Bold" font-weight="bold" font-size="72.2" fill="#34A4DA" transform="matrix(1.00, 0.00, -0.00, -1.00, 561.2, 855.0)"> </text><text xml:space="preserve" font-family="DINCondensed-Bold" font-weight="bold" font-size="72.2" fill="#34A4DA" transform="matrix(1.00, 0.00, -0.00, -1.00, 574.6, 855.0)">F</text><text xml:space="preserve" font-family="DINCondensed-Bold" font-weight="bold" font-size="72.2" fill="#34A4DA" transform="matrix(1.00, 0.00, -0.00, -1.00, 601.3, 855.0)">U</text><text xml:space="preserve" font-family="DINCondensed-Bold" font-weight="bold" font-size="72.2" fill="#34A4DA" transform="matrix(1.00, 0.00, -0.00, -1.00, 632.1, 855.0)">T</text><text xml:space="preserve" font-family="DINCondensed-Bold" font-weight="bold" font-size="72.2" fill="#34A4DA" transform="matrix(1.00, 0.00, -0.00, -1.00, 656.0, 855.0)">U</text><text xml:space="preserve" font-family="DINCondensed-Bold" font-weight="bold" font-size="72.2" fill="#34A4DA" transform="matrix(1.00, 0.00, -0.00, -1.00, 686.8, 855.0)">R</text><text xml:space="preserve" font-family="DINCondensed-Bold" font-weight="bold" font-size="72.2" fill="#34A4DA" transform="matrix(1.00, 0.00, -0.00, -1.00, 717.6, 855.0)">E</text><text xml:space="preserve" font-family="LucidaGrande" font-size="75.6" fill="#34A4DA" transform="matrix(1.00, 0.00, -0.00, -1.00, 64.0, 728.3)">▸</text><text xml:space="preserve" font-family="AvenirNext-Medium" font-size="72.0" fill="#838686" transform="matrix(1.00, 0.00, -0.00, -1.00, 109.0, 734.0)">P</text><text xml:space="preserve" font-family="AvenirNext-Medium" font-size="72.0" fill="#838686" transform="matrix(1.00, 0.00, -0.00, -1.00, 148.5, 734.0)">r</text><text xml:space="preserve" font-family="AvenirNext-Medium" font-size="72.0" fill="#838686" transform="matrix(1.00, 0.00, -0.00, -1.00, 173.3, 734.0)">o</text><text xml:space="preserve" font-family="AvenirNext-Medium" font-size="72.0" fill="#838686" transform="matrix(1.00, 0.00, -0.00, -1.00, 217.2, 734.0)">t</text><text xml:space="preserve" font-family="AvenirNext-Medium" font-size="72.0" fill="#838686" transform="matrix(1.00, 0.00, -0.00, -1.00, 240.9, 734.0)">o</text><text xml:space="preserve" font-family="AvenirNext-Medium" font-size="72.0" fill="#838686" transform="matrix(1.00, 0.00, -0.00, -1.00, 284.8, 734.0)">t</text><text xml:space="preserve" font-family="AvenirNext-Medium" font-size="72.0" fill="#838686" transform="matrix(1.00, 0.00, -0.00, -1.00, 308.5, 734.0)">y</text><text xml:space="preserve" font-family="AvenirNext-Medium" font-size="72.0" fill="#838686" transform="matrix(1.00, 0.00, -0.00, -1.00, 344.8, 734.0)">p</text><text xml:space="preserve" font-family="AvenirNext-Medium" font-size="72.0" fill="#838686" transform="matrix(1.00, 0.00, -0.00, -1.00, 390.4, 734.0)">i</text><text xml:space="preserve" font-family="AvenirNext-Medium" font-size="72.0" fill="#838686" transform="matrix(1.00, 0.00, -0.00, -1.00, 409.1, 734.0)">n</text><text xml:space="preserve" font-family="AvenirNext-Medium" font-size="72.0" fill="#838686" transform="matrix(1.00, 0.00, -0.00, -1.00, 451.0, 734.0)">g</text><text xml:space="preserve" font-family="AvenirNext-Medium" font-size="72.0" fill="#838686" transform="matrix(1.00, 0.00, -0.00, -1.00, 496.5, 734.0)"> </text><text xml:space="preserve" font-family="AvenirNext-Medium" font-size="72.0" fill="#838686" transform="matrix(1.00, 0.00, -0.00, -1.00, 514.5, 734.0)">s</text><text xml:space="preserve" font-family="AvenirNext-Medium" font-size="72.0" fill="#838686" transform="matrix(1.00, 0.00, -0.00, -1.00, 546.5, 734.0)">o</text><text xml:space="preserve" font-family="AvenirNext-Medium" font-size="72.0" fill="#838686" transform="matrix(1.00, 0.00, -0.00, -1.00, 590.4, 734.0)">l</text><text xml:space="preserve" font-family="AvenirNext-Medium" font-size="72.0" fill="#838686" transform="matrix(1.00, 0.00, -0.00, -1.00, 609.1, 734.0)">u</text><text xml:space="preserve" font-family="AvenirNext-Medium" font-size="72.0" fill="#838686" transform="matrix(1.00, 0.00, -0.00, -1.00, 651.0, 734.0)">t</text><text xml:space="preserve" font-family="AvenirNext-Medium" font-size="72.0" fill="#838686" transform="matrix(1.00, 0.00, -0.00, -1.00, 674.7, 734.0)">i</text><text xml:space="preserve" font-family="AvenirNext-Medium" font-size="72.0" fill="#838686" transform="matrix(1.00, 0.00, -0.00, -1.00, 693.4, 734.0)">o</text><text xml:space="preserve" font-family="AvenirNext-Medium" font-size="72.0" fill="#838686" transform="matrix(1.00, 0.00, -0.00, -1.00, 737.3, 734.0)">n</text><text xml:space="preserve" font-family="AvenirNext-Medium" font-size="72.0" fill="#838686" transform="matrix(1.00, 0.00, -0.00, -1.00, 779.2, 734.0)">s</text><text xml:space="preserve" font-family="AvenirNext-Medium" font-size="72.0" fill="#838686" transform="matrix(1.00, 0.00, -0.00, -1.00, 811.1, 734.0)"> </text><text xml:space="preserve" font-family="AvenirNext-Medium" font-size="72.0" fill="#838686" transform="matrix(1.00, 0.00, -0.00, -1.00, 829.1, 734.0)">j</text><text xml:space="preserve" font-family="AvenirNext-Medium" font-size="72.0" fill="#838686" transform="matrix(1.00, 0.00, -0.00, -1.00, 847.9, 734.0)">u</text><text xml:space="preserve" font-family="AvenirNext-Medium" font-size="72.0" fill="#838686" transform="matrix(1.00, 0.00, -0.00, -1.00, 889.8, 734.0)">s</text><text xml:space="preserve" font-family="AvenirNext-Medium" font-size="72.0" fill="#838686" transform="matrix(1.00, 0.00, -0.00, -1.00, 921.7, 734.0)">t</text><text xml:space="preserve" font-family="AvenirNext-Medium" font-size="72.0" fill="#838686" transform="matrix(1.00, 0.00, -0.00, -1.00, 945.4, 734.0)"> </text><text xml:space="preserve" font-family="AvenirNext-Medium" font-size="72.0" fill="#838686" transform="matrix(1.00, 0.00, -0.00, -1.00, 963.4, 734.0)">g</text><text xml:space="preserve" font-family="AvenirNext-Medium" font-size="72.0" fill="#838686" transform="matrix(1.00, 0.00, -0.00, -1.00, 1008.9, 734.0)">o</text><text xml:space="preserve" font-family="AvenirNext-Medium" font-size="72.0" fill="#838686" transform="matrix(1.00, 0.00, -0.00, -1.00, 1052.8, 734.0)">t</text><text xml:space="preserve" font-family="AvenirNext-Medium" font-size="72.0" fill="#838686" transform="matrix(1.00, 0.00, -0.00, -1.00, 1076.5, 734.0)"> </text><text xml:space="preserve" font-family="AvenirNext-Medium" font-size="72.0" fill="#838686" transform="matrix(1.00, 0.00, -0.00, -1.00, 1094.5, 734.0)">c</text><text xml:space="preserve" font-family="AvenirNext-Medium" font-size="72.0" fill="#838686" transform="matrix(1.00, 0.00, -0.00, -1.00, 1130.1, 734.0)">l</text><text xml:space="preserve" font-family="AvenirNext-Medium" font-size="72.0" fill="#838686" transform="matrix(1.00, 0.00, -0.00, -1.00, 1148.8, 734.0)">e</text><text xml:space="preserve" font-family="AvenirNext-Medium" font-size="72.0" fill="#838686" transform="matrix(1.00, 0.00, -0.00, -1.00, 1189.6, 734.0)">a</text><text xml:space="preserve" font-family="AvenirNext-Medium" font-size="72.0" fill="#838686" transform="matrix(1.00, 0.00, -0.00, -1.00, 1228.7, 734.0)">n</text><text xml:space="preserve" font-family="AvenirNext-Medium" font-size="72.0" fill="#838686" transform="matrix(1.00, 0.00, -0.00, -1.00, 1270.6, 734.0)">e</text><text xml:space="preserve" font-family="AvenirNext-Medium" font-size="72.0" fill="#838686" transform="matrix(1.00, 0.00, -0.00, -1.00, 1311.8, 734.0)">r</text><text xml:space="preserve" font-family="AvenirNext-Medium" font-size="72.0" fill="#838686" transform="matrix(1.00, 0.00, -0.00, -1.00, 1337.9, 734.0)">!</text><text xml:space="preserve" font-family="AvenirNext-Medium" font-size="72.0" fill="#838686" transform="matrix(1.00, 0.00, -0.00, -1.00, 1361.9, 734.0)"> </text><text xml:space="preserve" font-family="LucidaGrande" font-size="75.6" fill="#34A4DA" transform="matrix(1.00, 0.00, -0.00, -1.00, 64.0, 595.2)">▸</text><text xml:space="preserve" font-family="AvenirNext-Medium" font-size="72.0" fill="#838686" transform="matrix(1.00, 0.00, -0.00, -1.00, 109.0, 601.0)">Y</text><text xml:space="preserve" font-family="AvenirNext-Medium" font-size="72.0" fill="#838686" transform="matrix(1.00, 0.00, -0.00, -1.00, 147.2, 601.0)">o</text><text xml:space="preserve" font-family="AvenirNext-Medium" font-size="72.0" fill="#838686" transform="matrix(1.00, 0.00, -0.00, -1.00, 191.2, 601.0)">u</text><text xml:space="preserve" font-family="AvenirNext-Medium" font-size="72.0" fill="#838686" transform="matrix(1.00, 0.00, -0.00, -1.00, 233.1, 601.0)"> </text><text xml:space="preserve" font-family="AvenirNext-Medium" font-size="72.0" fill="#838686" transform="matrix(1.00, 0.00, -0.00, -1.00, 251.1, 601.0)">d</text><text xml:space="preserve" font-family="AvenirNext-Medium" font-size="72.0" fill="#838686" transform="matrix(1.00, 0.00, -0.00, -1.00, 296.8, 601.0)">o</text><text xml:space="preserve" font-family="AvenirNext-Medium" font-size="72.0" fill="#838686" transform="matrix(1.00, 0.00, -0.00, -1.00, 340.7, 601.0)">n</text><text xml:space="preserve" font-family="AvenirNext-Medium" font-size="72.0" fill="#838686" transform="matrix(1.00, 0.00, -0.00, -1.00, 382.6, 601.0)">’</text><text xml:space="preserve" font-family="AvenirNext-Medium" font-size="72.0" fill="#838686" transform="matrix(1.00, 0.00, -0.00, -1.00, 400.3, 601.0)">t</text><text xml:space="preserve" font-family="AvenirNext-Medium" font-size="72.0" fill="#838686" transform="matrix(1.00, 0.00, -0.00, -1.00, 424.0, 601.0)"> </text><text xml:space="preserve" font-family="AvenirNext-Medium" font-size="72.0" fill="#838686" transform="matrix(1.00, 0.00, -0.00, -1.00, 442.0, 601.0)">h</text><text xml:space="preserve" font-family="AvenirNext-Medium" font-size="72.0" fill="#838686" transform="matrix(1.00, 0.00, -0.00, -1.00, 484.0, 601.0)">a</text><text xml:space="preserve" font-family="AvenirNext-Medium" font-size="72.0" fill="#838686" transform="matrix(1.00, 0.00, -0.00, -1.00, 523.1, 601.0)">v</text><text xml:space="preserve" font-family="AvenirNext-Medium" font-size="72.0" fill="#838686" transform="matrix(1.00, 0.00, -0.00, -1.00, 559.4, 601.0)">e</text><text xml:space="preserve" font-family="AvenirNext-Medium" font-size="72.0" fill="#838686" transform="matrix(1.00, 0.00, -0.00, -1.00, 600.6, 601.0)"> </text><text xml:space="preserve" font-family="AvenirNext-Medium" font-size="72.0" fill="#838686" transform="matrix(1.00, 0.00, -0.00, -1.00, 618.6, 601.0)">t</text><text xml:space="preserve" font-family="AvenirNext-Medium" font-size="72.0" fill="#838686" transform="matrix(1.00, 0.00, -0.00, -1.00, 642.3, 601.0)">o</text><text xml:space="preserve" font-family="AvenirNext-Medium" font-size="72.0" fill="#838686" transform="matrix(1.00, 0.00, -0.00, -1.00, 686.2, 601.0)"> </text><text xml:space="preserve" font-family="AvenirNext-Medium" font-size="72.0" fill="#838686" transform="matrix(1.00, 0.00, -0.00, -1.00, 704.2, 601.0)">b</text><text xml:space="preserve" font-family="AvenirNext-Medium" font-size="72.0" fill="#838686" transform="matrix(1.00, 0.00, -0.00, -1.00, 750.0, 601.0)">u</text><text xml:space="preserve" font-family="AvenirNext-Medium" font-size="72.0" fill="#838686" transform="matrix(1.00, 0.00, -0.00, -1.00, 791.9, 601.0)">i</text><text xml:space="preserve" font-family="AvenirNext-Medium" font-size="72.0" fill="#838686" transform="matrix(1.00, 0.00, -0.00, -1.00, 810.6, 601.0)">l</text><text xml:space="preserve" font-family="AvenirNext-Medium" font-size="72.0" fill="#838686" transform="matrix(1.00, 0.00, -0.00, -1.00, 829.3, 601.0)">d</text><text xml:space="preserve" font-family="AvenirNext-Medium" font-size="72.0" fill="#838686" transform="matrix(1.00, 0.00, -0.00, -1.00, 875.0, 601.0)"> </text><text xml:space="preserve" font-family="AvenirNext-Medium" font-size="72.0" fill="#838686" transform="matrix(1.00, 0.00, -0.00, -1.00, 893.0, 601.0)">i</text><text xml:space="preserve" font-family="AvenirNext-Medium" font-size="72.0" fill="#838686" transform="matrix(1.00, 0.00, -0.00, -1.00, 911.7, 601.0)">t</text><text xml:space="preserve" font-family="AvenirNext-Medium" font-size="72.0" fill="#838686" transform="matrix(1.00, 0.00, -0.00, -1.00, 935.3, 601.0)"> </text><text xml:space="preserve" font-family="AvenirNext-Medium" font-size="72.0" fill="#838686" transform="matrix(1.00, 0.00, -0.00, -1.00, 953.3, 601.0)">t</text><text xml:space="preserve" font-family="AvenirNext-Medium" font-size="72.0" fill="#838686" transform="matrix(1.00, 0.00, -0.00, -1.00, 977.0, 601.0)">o</text><text xml:space="preserve" font-family="AvenirNext-Medium" font-size="72.0" fill="#838686" transform="matrix(1.00, 0.00, -0.00, -1.00, 1021.0, 601.0)"> </text><text xml:space="preserve" font-family="AvenirNext-Medium" font-size="72.0" fill="#838686" transform="matrix(1.00, 0.00, -0.00, -1.00, 1039.0, 601.0)">s</text><text xml:space="preserve" font-family="AvenirNext-Medium" font-size="72.0" fill="#838686" transform="matrix(1.00, 0.00, -0.00, -1.00, 1070.9, 601.0)">e</text><text xml:space="preserve" font-family="AvenirNext-Medium" font-size="72.0" fill="#838686" transform="matrix(1.00, 0.00, -0.00, -1.00, 1112.2, 601.0)">e</text><text xml:space="preserve" font-family="AvenirNext-Medium" font-size="72.0" fill="#838686" transform="matrix(1.00, 0.00, -0.00, -1.00, 1153.4, 601.0)"> </text><text xml:space="preserve" font-family="AvenirNext-Medium" font-size="72.0" fill="#838686" transform="matrix(1.00, 0.00, -0.00, -1.00, 1171.4, 601.0)">i</text><text xml:space="preserve" font-family="AvenirNext-Medium" font-size="72.0" fill="#838686" transform="matrix(1.00, 0.00, -0.00, -1.00, 1190.1, 601.0)">t</text><text xml:space="preserve" font-family="AvenirNext-Medium" font-size="72.0" fill="#838686" transform="matrix(1.00, 0.00, -0.00, -1.00, 1213.8, 601.0)">!</text><text xml:space="preserve" font-family="AvenirNext-Medium" font-size="72.0" fill="#838686" transform="matrix(1.00, 0.00, -0.00, -1.00, 1237.8, 601.0)"> </text><text xml:space="preserve" font-family="LucidaGrande" font-size="75.6" fill="#34A4DA" transform="matrix(1.00, 0.00, -0.00, -1.00, 114.0, 462.1)">▸</text><text xml:space="preserve" font-family="AvenirNext-Medium" font-size="72.0" fill="#838686" transform="matrix(1.00, 0.00, -0.00, -1.00, 159.0, 468.0)">W</text><text xml:space="preserve" font-family="AvenirNext-Medium" font-size="72.0" fill="#838686" transform="matrix(1.00, 0.00, -0.00, -1.00, 227.5, 468.0)">e</text><text xml:space="preserve" font-family="AvenirNext-Medium" font-size="72.0" fill="#838686" transform="matrix(1.00, 0.00, -0.00, -1.00, 268.8, 468.0)"> </text><text xml:space="preserve" font-family="AvenirNext-Medium" font-size="72.0" fill="#838686" transform="matrix(1.00, 0.00, -0.00, -1.00, 286.8, 468.0)">p</text><text xml:space="preserve" font-family="AvenirNext-Medium" font-size="72.0" fill="#838686" transform="matrix(1.00, 0.00, -0.00, -1.00, 332.4, 468.0)">r</text><text xml:space="preserve" font-family="AvenirNext-Medium" font-size="72.0" fill="#838686" transform="matrix(1.00, 0.00, -0.00, -1.00, 357.2, 468.0)">o</text><text xml:space="preserve" font-family="AvenirNext-Medium" font-size="72.0" fill="#838686" transform="matrix(1.00, 0.00, -0.00, -1.00, 401.1, 468.0)">v</text><text xml:space="preserve" font-family="AvenirNext-Medium" font-size="72.0" fill="#838686" transform="matrix(1.00, 0.00, -0.00, -1.00, 437.4, 468.0)">i</text><text xml:space="preserve" font-family="AvenirNext-Medium" font-size="72.0" fill="#838686" transform="matrix(1.00, 0.00, -0.00, -1.00, 456.1, 468.0)">d</text><text xml:space="preserve" font-family="AvenirNext-Medium" font-size="72.0" fill="#838686" transform="matrix(1.00, 0.00, -0.00, -1.00, 501.8, 468.0)">e</text><text xml:space="preserve" font-family="AvenirNext-Medium" font-size="72.0" fill="#838686" transform="matrix(1.00, 0.00, -0.00, -1.00, 543.0, 468.0)"> </text><text xml:space="preserve" font-family="AvenirNext-Medium" font-size="72.0" fill="#838686" transform="matrix(1.00, 0.00, -0.00, -1.00, 561.0, 468.0)">v</text><text xml:space="preserve" font-family="AvenirNext-Medium" font-size="72.0" fill="#838686" transform="matrix(1.00, 0.00, -0.00, -1.00, 597.3, 468.0)">i</text><text xml:space="preserve" font-family="AvenirNext-Medium" font-size="72.0" fill="#838686" transform="matrix(1.00, 0.00, -0.00, -1.00, 616.0, 468.0)">r</text><text xml:space="preserve" font-family="AvenirNext-Medium" font-size="72.0" fill="#838686" transform="matrix(1.00, 0.00, -0.00, -1.00, 641.2, 468.0)">t</text><text xml:space="preserve" font-family="AvenirNext-Medium" font-size="72.0" fill="#838686" transform="matrix(1.00, 0.00, -0.00, -1.00, 664.9, 468.0)">u</text><text xml:space="preserve" font-family="AvenirNext-Medium" font-size="72.0" fill="#838686" transform="matrix(1.00, 0.00, -0.00, -1.00, 706.8, 468.0)">a</text><text xml:space="preserve" font-family="AvenirNext-Medium" font-size="72.0" fill="#838686" transform="matrix(1.00, 0.00, -0.00, -1.00, 745.8, 468.0)">l</text><text xml:space="preserve" font-family="AvenirNext-Medium" font-size="72.0" fill="#838686" transform="matrix(1.00, 0.00, -0.00, -1.00, 764.5, 468.0)">i</text><text xml:space="preserve" font-family="AvenirNext-Medium" font-size="72.0" fill="#838686" transform="matrix(1.00, 0.00, -0.00, -1.00, 783.2, 468.0)">z</text><text xml:space="preserve" font-family="AvenirNext-Medium" font-size="72.0" fill="#838686" transform="matrix(1.00, 0.00, -0.00, -1.00, 816.4, 468.0)">a</text><text xml:space="preserve" font-family="AvenirNext-Medium" font-size="72.0" fill="#838686" transform="matrix(1.00, 0.00, -0.00, -1.00, 854.7, 468.0)">t</text><text xml:space="preserve" font-family="AvenirNext-Medium" font-size="72.0" fill="#838686" transform="matrix(1.00, 0.00, -0.00, -1.00, 878.4, 468.0)">i</text><text xml:space="preserve" font-family="AvenirNext-Medium" font-size="72.0" fill="#838686" transform="matrix(1.00, 0.00, -0.00, -1.00, 897.1, 468.0)">o</text><text xml:space="preserve" font-family="AvenirNext-Medium" font-size="72.0" fill="#838686" transform="matrix(1.00, 0.00, -0.00, -1.00, 941.0, 468.0)">n</text><text xml:space="preserve" font-family="AvenirNext-Medium" font-size="72.0" fill="#838686" transform="matrix(1.00, 0.00, -0.00, -1.00, 982.9, 468.0)"> </text><text xml:space="preserve" font-family="AvenirNext-Medium" font-size="72.0" fill="#838686" transform="matrix(1.00, 0.00, -0.00, -1.00, 1000.9, 468.0)">t</text><text xml:space="preserve" font-family="AvenirNext-Medium" font-size="72.0" fill="#838686" transform="matrix(1.00, 0.00, -0.00, -1.00, 1024.6, 468.0)">e</text><text xml:space="preserve" font-family="AvenirNext-Medium" font-size="72.0" fill="#838686" transform="matrix(1.00, 0.00, -0.00, -1.00, 1065.8, 468.0)">c</text><text xml:space="preserve" font-family="AvenirNext-Medium" font-size="72.0" fill="#838686" transform="matrix(1.00, 0.00, -0.00, -1.00, 1101.4, 468.0)">h</text><text xml:space="preserve" font-family="AvenirNext-Medium" font-size="72.0" fill="#838686" transform="matrix(1.00, 0.00, -0.00, -1.00, 1143.5, 468.0)">n</text><text xml:space="preserve" font-family="AvenirNext-Medium" font-size="72.0" fill="#838686" transform="matrix(1.00, 0.00, -0.00, -1.00, 1185.4, 468.0)">i</text><text xml:space="preserve" font-family="AvenirNext-Medium" font-size="72.0" fill="#838686" transform="matrix(1.00, 0.00, -0.00, -1.00, 1204.0, 468.0)">q</text><text xml:space="preserve" font-family="AvenirNext-Medium" font-size="72.0" fill="#838686" transform="matrix(1.00, 0.00, -0.00, -1.00, 1249.6, 468.0)">u</text><text xml:space="preserve" font-family="AvenirNext-Medium" font-size="72.0" fill="#838686" transform="matrix(1.00, 0.00, -0.00, -1.00, 1291.5, 468.0)">e</text><text xml:space="preserve" font-family="AvenirNext-Medium" font-size="72.0" fill="#838686" transform="matrix(1.00, 0.00, -0.00, -1.00, 1332.7, 468.0)">s</text><text xml:space="preserve" font-family="AvenirNext-Medium" font-size="72.0" fill="#838686" transform="matrix(1.00, 0.00, -0.00, -1.00, 1364.7, 468.0)">,</text><text xml:space="preserve" font-family="AvenirNext-Medium" font-size="72.0" fill="#838686" transform="matrix(1.00, 0.00, -0.00, -1.00, 1381.3, 468.0)"> </text><text xml:space="preserve" font-family="LucidaGrande" font-size="75.6" fill="#34A4DA" transform="matrix(1.00, 0.00, -0.00, -1.00, 114.0, 329.0)">▸</text><text xml:space="preserve" font-family="AvenirNext-Medium" font-size="72.0" fill="#838686" transform="matrix(1.00, 0.00, -0.00, -1.00, 159.0, 335.0)">C</text><text xml:space="preserve" font-family="AvenirNext-Medium" font-size="72.0" fill="#838686" transform="matrix(1.00, 0.00, -0.00, -1.00, 210.0, 335.0)">l</text><text xml:space="preserve" font-family="AvenirNext-Medium" font-size="72.0" fill="#838686" transform="matrix(1.00, 0.00, -0.00, -1.00, 228.7, 335.0)">e</text><text xml:space="preserve" font-family="AvenirNext-Medium" font-size="72.0" fill="#838686" transform="matrix(1.00, 0.00, -0.00, -1.00, 269.5, 335.0)">a</text><text xml:space="preserve" font-family="AvenirNext-Medium" font-size="72.0" fill="#838686" transform="matrix(1.00, 0.00, -0.00, -1.00, 308.5, 335.0)">n</text><text xml:space="preserve" font-family="AvenirNext-Medium" font-size="72.0" fill="#838686" transform="matrix(1.00, 0.00, -0.00, -1.00, 350.4, 335.0)">e</text><text xml:space="preserve" font-family="AvenirNext-Medium" font-size="72.0" fill="#838686" transform="matrix(1.00, 0.00, -0.00, -1.00, 391.7, 335.0)">r</text><text xml:space="preserve" font-family="AvenirNext-Medium" font-size="72.0" fill="#838686" transform="matrix(1.00, 0.00, -0.00, -1.00, 414.3, 335.0)">,</text><text xml:space="preserve" font-family="AvenirNext-Medium" font-size="72.0" fill="#838686" transform="matrix(1.00, 0.00, -0.00, -1.00, 430.9, 335.0)"> </text><text xml:space="preserve" font-family="AvenirNext-Medium" font-size="72.0" fill="#838686" transform="matrix(1.00, 0.00, -0.00, -1.00, 448.9, 335.0)">E</text><text xml:space="preserve" font-family="AvenirNext-Medium" font-size="72.0" fill="#838686" transform="matrix(1.00, 0.00, -0.00, -1.00, 492.1, 335.0)">n</text><text xml:space="preserve" font-family="AvenirNext-Medium" font-size="72.0" fill="#838686" transform="matrix(1.00, 0.00, -0.00, -1.00, 534.0, 335.0)">e</text><text xml:space="preserve" font-family="AvenirNext-Medium" font-size="72.0" fill="#838686" transform="matrix(1.00, 0.00, -0.00, -1.00, 575.3, 335.0)">r</text><text xml:space="preserve" font-family="AvenirNext-Medium" font-size="72.0" fill="#838686" transform="matrix(1.00, 0.00, -0.00, -1.00, 600.1, 335.0)">g</text><text xml:space="preserve" font-family="AvenirNext-Medium" font-size="72.0" fill="#838686" transform="matrix(1.00, 0.00, -0.00, -1.00, 645.6, 335.0)">y</text><text xml:space="preserve" font-family="AvenirNext-Medium" font-size="72.0" fill="#838686" transform="matrix(1.00, 0.00, -0.00, -1.00, 681.9, 335.0)"> </text><text xml:space="preserve" font-family="AvenirNext-Medium" font-size="72.0" fill="#838686" transform="matrix(1.00, 0.00, -0.00, -1.00, 699.9, 335.0)">E</text><text xml:space="preserve" font-family="AvenirNext-Medium" font-size="72.0" fill="#838686" transform="matrix(1.00, 0.00, -0.00, -1.00, 743.1, 335.0)">f</text><text xml:space="preserve" font-family="AvenirNext-Medium" font-size="72.0" fill="#838686" transform="matrix(1.00, 0.00, -0.00, -1.00, 763.9, 335.0)">ﬁ</text><text xml:space="preserve" font-family="AvenirNext-Medium" font-size="72.0" fill="#838686" transform="matrix(1.00, 0.00, -0.00, -1.00, 805.3, 335.0)">c</text><text xml:space="preserve" font-family="AvenirNext-Medium" font-size="72.0" fill="#838686" transform="matrix(1.00, 0.00, -0.00, -1.00, 840.8, 335.0)">i</text><text xml:space="preserve" font-family="AvenirNext-Medium" font-size="72.0" fill="#838686" transform="matrix(1.00, 0.00, -0.00, -1.00, 859.5, 335.0)">e</text><text xml:space="preserve" font-family="AvenirNext-Medium" font-size="72.0" fill="#838686" transform="matrix(1.00, 0.00, -0.00, -1.00, 900.7, 335.0)">n</text><text xml:space="preserve" font-family="AvenirNext-Medium" font-size="72.0" fill="#838686" transform="matrix(1.00, 0.00, -0.00, -1.00, 942.6, 335.0)">t</text><text xml:space="preserve" font-family="AvenirNext-Medium" font-size="72.0" fill="#838686" transform="matrix(1.00, 0.00, -0.00, -1.00, 966.3, 335.0)"> </text><text xml:space="preserve" font-family="AvenirNext-Medium" font-size="72.0" fill="#838686" transform="matrix(1.00, 0.00, -0.00, -1.00, 984.3, 335.0)">S</text><text xml:space="preserve" font-family="AvenirNext-Medium" font-size="72.0" fill="#838686" transform="matrix(1.00, 0.00, -0.00, -1.00, 1025.3, 335.0)">i</text><text xml:space="preserve" font-family="AvenirNext-Medium" font-size="72.0" fill="#838686" transform="matrix(1.00, 0.00, -0.00, -1.00, 1044.0, 335.0)">m</text><text xml:space="preserve" font-family="AvenirNext-Medium" font-size="72.0" fill="#838686" transform="matrix(1.00, 0.00, -0.00, -1.00, 1107.8, 335.0)">u</text><text xml:space="preserve" font-family="AvenirNext-Medium" font-size="72.0" fill="#838686" transform="matrix(1.00, 0.00, -0.00, -1.00, 1149.7, 335.0)">l</text><text xml:space="preserve" font-family="AvenirNext-Medium" font-size="72.0" fill="#838686" transform="matrix(1.00, 0.00, -0.00, -1.00, 1168.4, 335.0)">a</text><text xml:space="preserve" font-family="AvenirNext-Medium" font-size="72.0" fill="#838686" transform="matrix(1.00, 0.00, -0.00, -1.00, 1206.7, 335.0)">t</text><text xml:space="preserve" font-family="AvenirNext-Medium" font-size="72.0" fill="#838686" transform="matrix(1.00, 0.00, -0.00, -1.00, 1230.4, 335.0)">i</text><text xml:space="preserve" font-family="AvenirNext-Medium" font-size="72.0" fill="#838686" transform="matrix(1.00, 0.00, -0.00, -1.00, 1249.1, 335.0)">o</text><text xml:space="preserve" font-family="AvenirNext-Medium" font-size="72.0" fill="#838686" transform="matrix(1.00, 0.00, -0.00, -1.00, 1293.0, 335.0)">n</text><text xml:space="preserve" font-family="AvenirNext-Medium" font-size="72.0" fill="#838686" transform="matrix(1.00, 0.00, -0.00, -1.00, 1334.9, 335.0)">s</text><text xml:space="preserve" font-family="AvenirNext-Medium" font-size="72.0" fill="#838686" transform="matrix(1.00, 0.00, -0.00, -1.00, 1366.9, 335.0)"> </text><text xml:space="preserve" font-family="LucidaGrande" font-size="75.6" fill="#34A4DA" transform="matrix(1.00, 0.00, -0.00, -1.00, 64.0, 195.9)">▸</text><text xml:space="preserve" font-family="AvenirNext-Medium" font-size="72.0" fill="#838686" transform="matrix(1.00, 0.00, -0.00, -1.00, 109.0, 202.0)">W</text><text xml:space="preserve" font-family="AvenirNext-Medium" font-size="72.0" fill="#838686" transform="matrix(1.00, 0.00, -0.00, -1.00, 177.5, 202.0)">e</text><text xml:space="preserve" font-family="AvenirNext-Medium" font-size="72.0" fill="#838686" transform="matrix(1.00, 0.00, -0.00, -1.00, 218.8, 202.0)"> </text><text xml:space="preserve" font-family="AvenirNext-Medium" font-size="72.0" fill="#838686" transform="matrix(1.00, 0.00, -0.00, -1.00, 236.8, 202.0)">w</text><text xml:space="preserve" font-family="AvenirNext-Medium" font-size="72.0" fill="#838686" transform="matrix(1.00, 0.00, -0.00, -1.00, 292.5, 202.0)">i</text><text xml:space="preserve" font-family="AvenirNext-Medium" font-size="72.0" fill="#838686" transform="matrix(1.00, 0.00, -0.00, -1.00, 311.1, 202.0)">l</text><text xml:space="preserve" font-family="AvenirNext-Medium" font-size="72.0" fill="#838686" transform="matrix(1.00, 0.00, -0.00, -1.00, 329.8, 202.0)">l</text><text xml:space="preserve" font-family="AvenirNext-Medium" font-size="72.0" fill="#838686" transform="matrix(1.00, 0.00, -0.00, -1.00, 348.5, 202.0)"> </text><text xml:space="preserve" font-family="AvenirNext-Medium" font-size="72.0" fill="#838686" transform="matrix(1.00, 0.00, -0.00, -1.00, 366.5, 202.0)">w</text><text xml:space="preserve" font-family="AvenirNext-Medium" font-size="72.0" fill="#838686" transform="matrix(1.00, 0.00, -0.00, -1.00, 422.2, 202.0)">o</text><text xml:space="preserve" font-family="AvenirNext-Medium" font-size="72.0" fill="#838686" transform="matrix(1.00, 0.00, -0.00, -1.00, 466.1, 202.0)">r</text><text xml:space="preserve" font-family="AvenirNext-Medium" font-size="72.0" fill="#838686" transform="matrix(1.00, 0.00, -0.00, -1.00, 492.2, 202.0)">k</text><text xml:space="preserve" font-family="AvenirNext-Medium" font-size="72.0" fill="#838686" transform="matrix(1.00, 0.00, -0.00, -1.00, 530.1, 202.0)"> </text><text xml:space="preserve" font-family="AvenirNext-Medium" font-size="72.0" fill="#838686" transform="matrix(1.00, 0.00, -0.00, -1.00, 548.1, 202.0)">w</text><text xml:space="preserve" font-family="AvenirNext-Medium" font-size="72.0" fill="#838686" transform="matrix(1.00, 0.00, -0.00, -1.00, 603.8, 202.0)">i</text><text xml:space="preserve" font-family="AvenirNext-Medium" font-size="72.0" fill="#838686" transform="matrix(1.00, 0.00, -0.00, -1.00, 622.4, 202.0)">t</text><text xml:space="preserve" font-family="AvenirNext-Medium" font-size="72.0" fill="#838686" transform="matrix(1.00, 0.00, -0.00, -1.00, 646.1, 202.0)">h</text><text xml:space="preserve" font-family="AvenirNext-Medium" font-size="72.0" fill="#838686" transform="matrix(1.00, 0.00, -0.00, -1.00, 688.2, 202.0)"> </text><text xml:space="preserve" font-family="AvenirNext-Medium" font-size="72.0" fill="#838686" transform="matrix(1.00, 0.00, -0.00, -1.00, 706.2, 202.0)">y</text><text xml:space="preserve" font-family="AvenirNext-Medium" font-size="72.0" fill="#838686" transform="matrix(1.00, 0.00, -0.00, -1.00, 742.5, 202.0)">o</text><text xml:space="preserve" font-family="AvenirNext-Medium" font-size="72.0" fill="#838686" transform="matrix(1.00, 0.00, -0.00, -1.00, 786.4, 202.0)">u</text><text xml:space="preserve" font-family="AvenirNext-Medium" font-size="72.0" fill="#838686" transform="matrix(1.00, 0.00, -0.00, -1.00, 828.3, 202.0)"> </text><text xml:space="preserve" font-family="AvenirNext-Medium" font-size="72.0" fill="#838686" transform="matrix(1.00, 0.00, -0.00, -1.00, 846.3, 202.0)">t</text><text xml:space="preserve" font-family="AvenirNext-Medium" font-size="72.0" fill="#838686" transform="matrix(1.00, 0.00, -0.00, -1.00, 870.0, 202.0)">o</text><text xml:space="preserve" font-family="AvenirNext-Medium" font-size="72.0" fill="#838686" transform="matrix(1.00, 0.00, -0.00, -1.00, 913.9, 202.0)"> </text><text xml:space="preserve" font-family="AvenirNext-Medium" font-size="72.0" fill="#838686" transform="matrix(1.00, 0.00, -0.00, -1.00, 931.9, 202.0)">m</text><text xml:space="preserve" font-family="AvenirNext-Medium" font-size="72.0" fill="#838686" transform="matrix(1.00, 0.00, -0.00, -1.00, 995.8, 202.0)">a</text><text xml:space="preserve" font-family="AvenirNext-Medium" font-size="72.0" fill="#838686" transform="matrix(1.00, 0.00, -0.00, -1.00, 1034.8, 202.0)">k</text><text xml:space="preserve" font-family="AvenirNext-Medium" font-size="72.0" fill="#838686" transform="matrix(1.00, 0.00, -0.00, -1.00, 1071.4, 202.0)">e</text><text xml:space="preserve" font-family="AvenirNext-Medium" font-size="72.0" fill="#838686" transform="matrix(1.00, 0.00, -0.00, -1.00, 1112.7, 202.0)"> </text><text xml:space="preserve" font-family="AvenirNext-Medium" font-size="72.0" fill="#838686" transform="matrix(1.00, 0.00, -0.00, -1.00, 1130.7, 202.0)">y</text><text xml:space="preserve" font-family="AvenirNext-Medium" font-size="72.0" fill="#838686" transform="matrix(1.00, 0.00, -0.00, -1.00, 1167.0, 202.0)">o</text><text xml:space="preserve" font-family="AvenirNext-Medium" font-size="72.0" fill="#838686" transform="matrix(1.00, 0.00, -0.00, -1.00, 1210.9, 202.0)">u</text><text xml:space="preserve" font-family="AvenirNext-Medium" font-size="72.0" fill="#838686" transform="matrix(1.00, 0.00, -0.00, -1.00, 1252.8, 202.0)">r</text><text xml:space="preserve" font-family="AvenirNext-Medium" font-size="72.0" fill="#838686" transform="matrix(1.00, 0.00, -0.00, -1.00, 1278.9, 202.0)"> </text><text xml:space="preserve" font-family="AvenirNext-Medium" font-size="72.0" fill="#838686" transform="matrix(1.00, 0.00, -0.00, -1.00, 1296.9, 202.0)">b</text><text xml:space="preserve" font-family="AvenirNext-Medium" font-size="72.0" fill="#838686" transform="matrix(1.00, 0.00, -0.00, -1.00, 1342.6, 202.0)">u</text><text xml:space="preserve" font-family="AvenirNext-Medium" font-size="72.0" fill="#838686" transform="matrix(1.00, 0.00, -0.00, -1.00, 1384.6, 202.0)">s</text><text xml:space="preserve" font-family="AvenirNext-Medium" font-size="72.0" fill="#838686" transform="matrix(1.00, 0.00, -0.00, -1.00, 1416.5, 202.0)">i</text><text xml:space="preserve" font-family="AvenirNext-Medium" font-size="72.0" fill="#838686" transform="matrix(1.00, 0.00, -0.00, -1.00, 1435.2, 202.0)">n</text><text xml:space="preserve" font-family="AvenirNext-Medium" font-size="72.0" fill="#838686" transform="matrix(1.00, 0.00, -0.00, -1.00, 1477.1, 202.0)">e</text><text xml:space="preserve" font-family="AvenirNext-Medium" font-size="72.0" fill="#838686" transform="matrix(1.00, 0.00, -0.00, -1.00, 1518.3, 202.0)">s</text><text xml:space="preserve" font-family="AvenirNext-Medium" font-size="72.0" fill="#838686" transform="matrix(1.00, 0.00, -0.00, -1.00, 1550.3, 202.0)">s</text><text xml:space="preserve" font-family="AvenirNext-Medium" font-size="72.0" fill="#838686" transform="matrix(1.00, 0.00, -0.00, -1.00, 1582.3, 202.0)"> </text><text xml:space="preserve" font-family="AvenirNext-Medium" font-size="72.0" fill="#838686" transform="matrix(1.00, 0.00, -0.00, -1.00, 1600.3, 202.0)">a</text><text xml:space="preserve" font-family="AvenirNext-Medium" font-size="72.0" fill="#838686" transform="matrix(1.00, 0.00, -0.00, -1.00, 1639.3, 202.0)"> </text><text xml:space="preserve" font-family="AvenirNext-Medium" font-size="72.0" fill="#838686" transform="matrix(1.00, 0.00, -0.00, -1.00, 1657.3, 202.0)">s</text><text xml:space="preserve" font-family="AvenirNext-Medium" font-size="72.0" fill="#838686" transform="matrix(1.00, 0.00, -0.00, -1.00, 1689.3, 202.0)">o</text><text xml:space="preserve" font-family="AvenirNext-Medium" font-size="72.0" fill="#838686" transform="matrix(1.00, 0.00, -0.00, -1.00, 1733.2, 202.0)">l</text><text xml:space="preserve" font-family="AvenirNext-Medium" font-size="72.0" fill="#838686" transform="matrix(1.00, 0.00, -0.00, -1.00, 1751.9, 202.0)">i</text><text xml:space="preserve" font-family="AvenirNext-Medium" font-size="72.0" fill="#838686" transform="matrix(1.00, 0.00, -0.00, -1.00, 1770.5, 202.0)">d</text><text xml:space="preserve" font-family="AvenirNext-Medium" font-size="72.0" fill="#838686" transform="matrix(1.00, 0.00, -0.00, -1.00, 1816.3, 202.0)"> </text><text xml:space="preserve" font-family="AvenirNext-Medium" font-size="72.0" fill="#838686" transform="matrix(1.00, 0.00, -0.00, -1.00, 109.0, 104.0)">b</text><text xml:space="preserve" font-family="AvenirNext-Medium" font-size="72.0" fill="#838686" transform="matrix(1.00, 0.00, -0.00, -1.00, 154.8, 104.0)">u</text><text xml:space="preserve" font-family="AvenirNext-Medium" font-size="72.0" fill="#838686" transform="matrix(1.00, 0.00, -0.00, -1.00, 196.7, 104.0)">s</text><text xml:space="preserve" font-family="AvenirNext-Medium" font-size="72.0" fill="#838686" transform="matrix(1.00, 0.00, -0.00, -1.00, 228.7, 104.0)">i</text><text xml:space="preserve" font-family="AvenirNext-Medium" font-size="72.0" fill="#838686" transform="matrix(1.00, 0.00, -0.00, -1.00, 247.3, 104.0)">n</text><text xml:space="preserve" font-family="AvenirNext-Medium" font-size="72.0" fill="#838686" transform="matrix(1.00, 0.00, -0.00, -1.00, 289.2, 104.0)">e</text><text xml:space="preserve" font-family="AvenirNext-Medium" font-size="72.0" fill="#838686" transform="matrix(1.00, 0.00, -0.00, -1.00, 330.5, 104.0)">s</text><text xml:space="preserve" font-family="AvenirNext-Medium" font-size="72.0" fill="#838686" transform="matrix(1.00, 0.00, -0.00, -1.00, 362.4, 104.0)">s</text><text xml:space="preserve" font-family="AvenirNext-Medium" font-size="72.0" fill="#838686" transform="matrix(1.00, 0.00, -0.00, -1.00, 394.4, 104.0)"> </text><text xml:space="preserve" font-family="AvenirNext-Medium" font-size="72.0" fill="#838686" transform="matrix(1.00, 0.00, -0.00, -1.00, 412.4, 104.0)">f</text><text xml:space="preserve" font-family="AvenirNext-Medium" font-size="72.0" fill="#838686" transform="matrix(1.00, 0.00, -0.00, -1.00, 434.7, 104.0)">o</text><text xml:space="preserve" font-family="AvenirNext-Medium" font-size="72.0" fill="#838686" transform="matrix(1.00, 0.00, -0.00, -1.00, 478.6, 104.0)">r</text><text xml:space="preserve" font-family="AvenirNext-Medium" font-size="72.0" fill="#838686" transform="matrix(1.00, 0.00, -0.00, -1.00, 504.7, 104.0)"> </text><text xml:space="preserve" font-family="AvenirNext-Medium" font-size="72.0" fill="#838686" transform="matrix(1.00, 0.00, -0.00, -1.00, 522.7, 104.0)">t</text><text xml:space="preserve" font-family="AvenirNext-Medium" font-size="72.0" fill="#838686" transform="matrix(1.00, 0.00, -0.00, -1.00, 546.4, 104.0)">o</text><text xml:space="preserve" font-family="AvenirNext-Medium" font-size="72.0" fill="#838686" transform="matrix(1.00, 0.00, -0.00, -1.00, 590.3, 104.0)">m</text><text xml:space="preserve" font-family="AvenirNext-Medium" font-size="72.0" fill="#838686" transform="matrix(1.00, 0.00, -0.00, -1.00, 654.2, 104.0)">o</text><text xml:space="preserve" font-family="AvenirNext-Medium" font-size="72.0" fill="#838686" transform="matrix(1.00, 0.00, -0.00, -1.00, 698.1, 104.0)">r</text><text xml:space="preserve" font-family="AvenirNext-Medium" font-size="72.0" fill="#838686" transform="matrix(1.00, 0.00, -0.00, -1.00, 724.2, 104.0)">r</text><text xml:space="preserve" font-family="AvenirNext-Medium" font-size="72.0" fill="#838686" transform="matrix(1.00, 0.00, -0.00, -1.00, 748.9, 104.0)">o</text><text xml:space="preserve" font-family="AvenirNext-Medium" font-size="72.0" fill="#838686" transform="matrix(1.00, 0.00, -0.00, -1.00, 792.9, 104.0)">w</text><text xml:space="preserve" font-family="AvenirNext-Medium" font-size="72.0" fill="#838686" transform="matrix(1.00, 0.00, -0.00, -1.00, 848.5, 104.0)"> </text><text xml:space="preserve" font-family="AvenirNext-Medium" font-size="72.0" fill="#838686" transform="matrix(1.00, 0.00, -0.00, -1.00, 866.5, 104.0)">s</text><text xml:space="preserve" font-family="AvenirNext-Medium" font-size="72.0" fill="#838686" transform="matrix(1.00, 0.00, -0.00, -1.00, 898.5, 104.0)">i</text><text xml:space="preserve" font-family="AvenirNext-Medium" font-size="72.0" fill="#838686" transform="matrix(1.00, 0.00, -0.00, -1.00, 917.1, 104.0)">n</text><text xml:space="preserve" font-family="AvenirNext-Medium" font-size="72.0" fill="#838686" transform="matrix(1.00, 0.00, -0.00, -1.00, 959.0, 104.0)">c</text><text xml:space="preserve" font-family="AvenirNext-Medium" font-size="72.0" fill="#838686" transform="matrix(1.00, 0.00, -0.00, -1.00, 994.6, 104.0)">e</text><text xml:space="preserve" font-family="AvenirNext-Medium" font-size="72.0" fill="#838686" transform="matrix(1.00, 0.00, -0.00, -1.00, 1035.9, 104.0)"> </text><text xml:space="preserve" font-family="AvenirNext-Medium" font-size="72.0" fill="#838686" transform="matrix(1.00, 0.00, -0.00, -1.00, 1053.9, 104.0)">t</text><text xml:space="preserve" font-family="AvenirNext-Medium" font-size="72.0" fill="#838686" transform="matrix(1.00, 0.00, -0.00, -1.00, 1077.5, 104.0)">o</text><text xml:space="preserve" font-family="AvenirNext-Medium" font-size="72.0" fill="#838686" transform="matrix(1.00, 0.00, -0.00, -1.00, 1121.5, 104.0)">d</text><text xml:space="preserve" font-family="AvenirNext-Medium" font-size="72.0" fill="#838686" transform="matrix(1.00, 0.00, -0.00, -1.00, 1167.2, 104.0)">a</text><text xml:space="preserve" font-family="AvenirNext-Medium" font-size="72.0" fill="#838686" transform="matrix(1.00, 0.00, -0.00, -1.00, 1206.2, 104.0)">y</text><text xml:space="preserve" font-family="AvenirNext-Medium" font-size="72.0" fill="#838686" transform="matrix(1.00, 0.00, -0.00, -1.00, 1239.9, 104.0)">.</text></g></svg>