<?xml version="1.0" encoding="UTF-8" standalone="no"?><svg xmlns="http://www.w3.org/2000/svg" xmlns:xlink="http://www.w3.org/1999/xlink" clip-rule="evenodd" stroke-miterlimit="4.00" viewBox="0 0 391 88"><desc>SVG generated by Keynote</desc><defs></defs><g transform="matrix(1.00, 0.00, -0.00, -1.00, 0.0, 88.0)"><text xml:space="preserve" font-family="LucidaGrande" font-size="73.5" fill="#34A4DA" transform="matrix(1.00, 0.00, -0.00, -1.00, 0.0, 16.0)">▸</text><text xml:space="preserve" font-family="AvenirNext-Medium" font-size="70.0" fill="#838686" transform="matrix(1.00, 0.00, -0.00, -1.00, 50.0, 22.0)">A</text><text xml:space="preserve" font-family="AvenirNext-Medium" font-size="70.0" fill="#838686" transform="matrix(1.00, 0.00, -0.00, -1.00, 99.8, 22.0)">f</text><text xml:space="preserve" font-family="AvenirNext-Medium" font-size="70.0" fill="#838686" transform="matrix(1.00, 0.00, -0.00, -1.00, 120.4, 22.0)">t</text><text xml:space="preserve" font-family="AvenirNext-Medium" font-size="70.0" fill="#838686" transform="matrix(1.00, 0.00, -0.00, -1.00, 143.4, 22.0)">e</text><text xml:space="preserve" font-family="AvenirNext-Medium" font-size="70.0" fill="#838686" transform="matrix(1.00, 0.00, -0.00, -1.00, 183.6, 22.0)">r</text><text xml:space="preserve" font-family="AvenirNext-Medium" font-size="70.0" fill="#838686" transform="matrix(1.00, 0.00, -0.00, -1.00, 208.9, 22.0)"> </text><text xml:space="preserve" font-family="AvenirNext-Medium" font-size="70.0" fill="#838686" transform="matrix(1.00, 0.00, -0.00, -1.00, 226.4, 22.0)">2</text><text xml:space="preserve" font-family="AvenirNext-Medium" font-size="70.0" fill="#838686" transform="matrix(1.00, 0.00, -0.00, -1.00, 268.1, 22.0)">0</text><text xml:space="preserve" font-family="AvenirNext-Medium" font-size="70.0" fill="#838686" transform="matrix(1.00, 0.00, -0.00, -1.00, 309.7, 22.0)">0</text><text xml:space="preserve" font-family="AvenirNext-Medium" font-size="70.0" fill="#838686" transform="matrix(1.00, 0.00, -0.00, -1.00, 351.4, 22.0)">0</text></g></svg>