<?xml version="1.0" encoding="UTF-8" standalone="no"?><svg xmlns="http://www.w3.org/2000/svg" xmlns:xlink="http://www.w3.org/1999/xlink" clip-rule="evenodd" stroke-miterlimit="4.00" viewBox="0 0 677 59"><desc>SVG generated by Keynote</desc><defs></defs><g transform="matrix(1.00, 0.00, -0.00, -1.00, 0.0, 59.0)"><text xml:space="preserve" font-family="DINAlternate-Bold" font-weight="bold" font-size="77.0" fill="#A6AAA9" transform="matrix(1.00, 0.00, -0.00, -1.00, 1.0, 2.0)">W</text><text xml:space="preserve" font-family="DINAlternate-Bold" font-weight="bold" font-size="77.0" fill="#A6AAA9" transform="matrix(1.00, 0.00, -0.00, -1.00, 65.1, 2.0)">E</text><text xml:space="preserve" font-family="DINAlternate-Bold" font-weight="bold" font-size="77.0" fill="#A6AAA9" transform="matrix(1.00, 0.00, -0.00, -1.00, 107.9, 2.0)"> </text><text xml:space="preserve" font-family="DINAlternate-Bold" font-weight="bold" font-size="77.0" fill="#A6AAA9" transform="matrix(1.00, 0.00, -0.00, -1.00, 126.3, 2.0)">A</text><text xml:space="preserve" font-family="DINAlternate-Bold" font-weight="bold" font-size="77.0" fill="#A6AAA9" transform="matrix(1.00, 0.00, -0.00, -1.00, 173.3, 2.0)">R</text><text xml:space="preserve" font-family="DINAlternate-Bold" font-weight="bold" font-size="77.0" fill="#A6AAA9" transform="matrix(1.00, 0.00, -0.00, -1.00, 220.2, 2.0)">E</text><text xml:space="preserve" font-family="DINAlternate-Bold" font-weight="bold" font-size="77.0" fill="#A6AAA9" transform="matrix(1.00, 0.00, -0.00, -1.00, 263.1, 2.0)"> </text><text xml:space="preserve" font-family="DINAlternate-Bold" font-weight="bold" font-size="77.0" fill="#A6AAA9" transform="matrix(1.00, 0.00, -0.00, -1.00, 281.5, 2.0)">B</text><text xml:space="preserve" font-family="DINAlternate-Bold" font-weight="bold" font-size="77.0" fill="#A6AAA9" transform="matrix(1.00, 0.00, -0.00, -1.00, 328.5, 2.0)">U</text><text xml:space="preserve" font-family="DINAlternate-Bold" font-weight="bold" font-size="77.0" fill="#A6AAA9" transform="matrix(1.00, 0.00, -0.00, -1.00, 377.0, 2.0)">I</text><text xml:space="preserve" font-family="DINAlternate-Bold" font-weight="bold" font-size="77.0" fill="#A6AAA9" transform="matrix(1.00, 0.00, -0.00, -1.00, 396.8, 2.0)">L</text><text xml:space="preserve" font-family="DINAlternate-Bold" font-weight="bold" font-size="77.0" fill="#A6AAA9" transform="matrix(1.00, 0.00, -0.00, -1.00, 439.6, 2.0)">D</text><text xml:space="preserve" font-family="DINAlternate-Bold" font-weight="bold" font-size="77.0" fill="#A6AAA9" transform="matrix(1.00, 0.00, -0.00, -1.00, 488.1, 2.0)">I</text><text xml:space="preserve" font-family="DINAlternate-Bold" font-weight="bold" font-size="77.0" fill="#A6AAA9" transform="matrix(1.00, 0.00, -0.00, -1.00, 508.0, 2.0)">N</text><text xml:space="preserve" font-family="DINAlternate-Bold" font-weight="bold" font-size="77.0" fill="#A6AAA9" transform="matrix(1.00, 0.00, -0.00, -1.00, 560.7, 2.0)">G</text><text xml:space="preserve" font-family="DINAlternate-Bold" font-weight="bold" font-size="77.0" fill="#A6AAA9" transform="matrix(1.00, 0.00, -0.00, -1.00, 607.6, 2.0)">…</text></g></svg>