<?xml version="1.0" encoding="UTF-8" standalone="no"?><svg xmlns="http://www.w3.org/2000/svg" xmlns:xlink="http://www.w3.org/1999/xlink" clip-rule="evenodd" stroke-miterlimit="4.00" viewBox="0 0 1385 88"><desc>SVG generated by Keynote</desc><defs></defs><g transform="matrix(1.00, 0.00, -0.00, -1.00, 0.0, 88.0)"><text xml:space="preserve" font-family="LucidaGrande" font-size="73.5" fill="#34A4DA" transform="matrix(1.00, 0.00, -0.00, -1.00, 0.0, 16.0)">▸</text><text xml:space="preserve" font-family="AvenirNext-Medium" font-size="70.0" fill="#838686" transform="matrix(1.00, 0.00, -0.00, -1.00, 50.0, 22.0)">L</text><text xml:space="preserve" font-family="AvenirNext-Medium" font-size="70.0" fill="#838686" transform="matrix(1.00, 0.00, -0.00, -1.00, 84.5, 22.0)">e</text><text xml:space="preserve" font-family="AvenirNext-Medium" font-size="70.0" fill="#838686" transform="matrix(1.00, 0.00, -0.00, -1.00, 124.6, 22.0)">s</text><text xml:space="preserve" font-family="AvenirNext-Medium" font-size="70.0" fill="#838686" transform="matrix(1.00, 0.00, -0.00, -1.00, 155.7, 22.0)">s</text><text xml:space="preserve" font-family="AvenirNext-Medium" font-size="70.0" fill="#838686" transform="matrix(1.00, 0.00, -0.00, -1.00, 186.8, 22.0)"> </text><text xml:space="preserve" font-family="AvenirNext-Medium" font-size="70.0" fill="#838686" transform="matrix(1.00, 0.00, -0.00, -1.00, 204.3, 22.0)">t</text><text xml:space="preserve" font-family="AvenirNext-Medium" font-size="70.0" fill="#838686" transform="matrix(1.00, 0.00, -0.00, -1.00, 227.3, 22.0)">h</text><text xml:space="preserve" font-family="AvenirNext-Medium" font-size="70.0" fill="#838686" transform="matrix(1.00, 0.00, -0.00, -1.00, 268.2, 22.0)">a</text><text xml:space="preserve" font-family="AvenirNext-Medium" font-size="70.0" fill="#838686" transform="matrix(1.00, 0.00, -0.00, -1.00, 306.1, 22.0)">n</text><text xml:space="preserve" font-family="AvenirNext-Medium" font-size="70.0" fill="#838686" transform="matrix(1.00, 0.00, -0.00, -1.00, 346.9, 22.0)"> </text><text xml:space="preserve" font-family="AvenirNext-Medium" font-size="70.0" fill="#838686" transform="matrix(1.00, 0.00, -0.00, -1.00, 364.4, 22.0)">5</text><text xml:space="preserve" font-family="AvenirNext-Medium" font-size="70.0" fill="#838686" transform="matrix(1.00, 0.00, -0.00, -1.00, 406.0, 22.0)">0</text><text xml:space="preserve" font-family="AvenirNext-Medium" font-size="70.0" fill="#838686" transform="matrix(1.00, 0.00, -0.00, -1.00, 447.7, 22.0)">0</text><text xml:space="preserve" font-family="AvenirNext-Medium" font-size="70.0" fill="#838686" transform="matrix(1.00, 0.00, -0.00, -1.00, 489.3, 22.0)">0</text><text xml:space="preserve" font-family="AvenirNext-Medium" font-size="70.0" fill="#838686" transform="matrix(1.00, 0.00, -0.00, -1.00, 531.0, 22.0)"> </text><text xml:space="preserve" font-family="AvenirNext-Medium" font-size="70.0" fill="#838686" transform="matrix(1.00, 0.00, -0.00, -1.00, 546.8, 22.0)">T</text><text xml:space="preserve" font-family="AvenirNext-Medium" font-size="70.0" fill="#838686" transform="matrix(1.00, 0.00, -0.00, -1.00, 579.9, 22.0)">e</text><text xml:space="preserve" font-family="AvenirNext-Medium" font-size="70.0" fill="#838686" transform="matrix(1.00, 0.00, -0.00, -1.00, 620.0, 22.0)">r</text><text xml:space="preserve" font-family="AvenirNext-Medium" font-size="70.0" fill="#838686" transform="matrix(1.00, 0.00, -0.00, -1.00, 644.4, 22.0)">a</text><text xml:space="preserve" font-family="AvenirNext-Medium" font-size="70.0" fill="#838686" transform="matrix(1.00, 0.00, -0.00, -1.00, 682.4, 22.0)">g</text><text xml:space="preserve" font-family="AvenirNext-Medium" font-size="70.0" fill="#838686" transform="matrix(1.00, 0.00, -0.00, -1.00, 726.6, 22.0)">r</text><text xml:space="preserve" font-family="AvenirNext-Medium" font-size="70.0" fill="#838686" transform="matrix(1.00, 0.00, -0.00, -1.00, 751.1, 22.0)">a</text><text xml:space="preserve" font-family="AvenirNext-Medium" font-size="70.0" fill="#838686" transform="matrix(1.00, 0.00, -0.00, -1.00, 789.0, 22.0)">m</text><text xml:space="preserve" font-family="AvenirNext-Medium" font-size="70.0" fill="#838686" transform="matrix(1.00, 0.00, -0.00, -1.00, 851.1, 22.0)">s</text><text xml:space="preserve" font-family="AvenirNext-Medium" font-size="70.0" fill="#838686" transform="matrix(1.00, 0.00, -0.00, -1.00, 882.2, 22.0)"> </text><text xml:space="preserve" font-family="AvenirNext-Medium" font-size="70.0" fill="#838686" transform="matrix(1.00, 0.00, -0.00, -1.00, 899.7, 22.0)">(</text><text xml:space="preserve" font-family="AvenirNext-Medium" font-size="70.0" fill="#838686" transform="matrix(1.00, 0.00, -0.00, -1.00, 921.7, 22.0)">T</text><text xml:space="preserve" font-family="AvenirNext-Medium" font-size="70.0" fill="#838686" transform="matrix(1.00, 0.00, -0.00, -1.00, 955.2, 22.0)">r</text><text xml:space="preserve" font-family="AvenirNext-Medium" font-size="70.0" fill="#838686" transform="matrix(1.00, 0.00, -0.00, -1.00, 980.6, 22.0)">i</text><text xml:space="preserve" font-family="AvenirNext-Medium" font-size="70.0" fill="#838686" transform="matrix(1.00, 0.00, -0.00, -1.00, 998.7, 22.0)">l</text><text xml:space="preserve" font-family="AvenirNext-Medium" font-size="70.0" fill="#838686" transform="matrix(1.00, 0.00, -0.00, -1.00, 1016.9, 22.0)">l</text><text xml:space="preserve" font-family="AvenirNext-Medium" font-size="70.0" fill="#838686" transform="matrix(1.00, 0.00, -0.00, -1.00, 1035.1, 22.0)">i</text><text xml:space="preserve" font-family="AvenirNext-Medium" font-size="70.0" fill="#838686" transform="matrix(1.00, 0.00, -0.00, -1.00, 1053.2, 22.0)">o</text><text xml:space="preserve" font-family="AvenirNext-Medium" font-size="70.0" fill="#838686" transform="matrix(1.00, 0.00, -0.00, -1.00, 1095.9, 22.0)">n</text><text xml:space="preserve" font-family="AvenirNext-Medium" font-size="70.0" fill="#838686" transform="matrix(1.00, 0.00, -0.00, -1.00, 1136.7, 22.0)"> </text><text xml:space="preserve" font-family="AvenirNext-Medium" font-size="70.0" fill="#838686" transform="matrix(1.00, 0.00, -0.00, -1.00, 1154.2, 22.0)">G</text><text xml:space="preserve" font-family="AvenirNext-Medium" font-size="70.0" fill="#838686" transform="matrix(1.00, 0.00, -0.00, -1.00, 1208.6, 22.0)">r</text><text xml:space="preserve" font-family="AvenirNext-Medium" font-size="70.0" fill="#838686" transform="matrix(1.00, 0.00, -0.00, -1.00, 1233.1, 22.0)">a</text><text xml:space="preserve" font-family="AvenirNext-Medium" font-size="70.0" fill="#838686" transform="matrix(1.00, 0.00, -0.00, -1.00, 1271.0, 22.0)">m</text><text xml:space="preserve" font-family="AvenirNext-Medium" font-size="70.0" fill="#838686" transform="matrix(1.00, 0.00, -0.00, -1.00, 1333.1, 22.0)">s</text><text xml:space="preserve" font-family="AvenirNext-Medium" font-size="70.0" fill="#838686" transform="matrix(1.00, 0.00, -0.00, -1.00, 1364.2, 22.0)">)</text></g></svg>