<?xml version="1.0" encoding="UTF-8" standalone="no"?><svg xmlns="http://www.w3.org/2000/svg" xmlns:xlink="http://www.w3.org/1999/xlink" clip-rule="evenodd" stroke-miterlimit="4.00" viewBox="0 0 1920 1080"><desc>SVG generated by Keynote</desc><defs></defs><g transform="matrix(1.00, 0.00, -0.00, -1.00, 0.0, 1080.0)"><path d="M 0.0 1080.0 L 1920.0 1080.0 L 1920.0 0.0 L 0.0 0.0 Z M 0.0 1080.0 " fill="#212121"></path><text xml:space="preserve" font-family="DINCondensed-Bold" font-weight="bold" font-size="275.7" fill="#34A4DA" transform="matrix(1.00, 0.00, -0.00, -1.00, 64.0, 434.0)">W</text><text xml:space="preserve" font-family="DINCondensed-Bold" font-weight="bold" font-size="275.7" fill="#34A4DA" transform="matrix(1.00, 0.00, -0.00, -1.00, 227.5, 434.0)">E</text><text xml:space="preserve" font-family="DINCondensed-Bold" font-weight="bold" font-size="275.7" fill="#34A4DA" transform="matrix(1.00, 0.00, -0.00, -1.00, 329.5, 434.0)"> </text><text xml:space="preserve" font-family="DINCondensed-Bold" font-weight="bold" font-size="275.7" fill="#34A4DA" transform="matrix(1.00, 0.00, -0.00, -1.00, 380.8, 434.0)">A</text><text xml:space="preserve" font-family="DINCondensed-Bold" font-weight="bold" font-size="275.7" fill="#34A4DA" transform="matrix(1.00, 0.00, -0.00, -1.00, 493.0, 434.0)">R</text><text xml:space="preserve" font-family="DINCondensed-Bold" font-weight="bold" font-size="275.7" fill="#34A4DA" transform="matrix(1.00, 0.00, -0.00, -1.00, 610.5, 434.0)">E</text><text xml:space="preserve" font-family="DINCondensed-Bold" font-weight="bold" font-size="275.7" fill="#34A4DA" transform="matrix(1.00, 0.00, -0.00, -1.00, 712.5, 434.0)"> </text><text xml:space="preserve" font-family="DINCondensed-Bold" font-weight="bold" font-size="275.7" fill="#34A4DA" transform="matrix(1.00, 0.00, -0.00, -1.00, 763.8, 434.0)">B</text><text xml:space="preserve" font-family="DINCondensed-Bold" font-weight="bold" font-size="275.7" fill="#34A4DA" transform="matrix(1.00, 0.00, -0.00, -1.00, 881.3, 434.0)">U</text><text xml:space="preserve" font-family="DINCondensed-Bold" font-weight="bold" font-size="275.7" fill="#34A4DA" transform="matrix(1.00, 0.00, -0.00, -1.00, 998.7, 434.0)">I</text><text xml:space="preserve" font-family="DINCondensed-Bold" font-weight="bold" font-size="275.7" fill="#34A4DA" transform="matrix(1.00, 0.00, -0.00, -1.00, 1055.0, 434.0)">L</text><text xml:space="preserve" font-family="DINCondensed-Bold" font-weight="bold" font-size="275.7" fill="#34A4DA" transform="matrix(1.00, 0.00, -0.00, -1.00, 1157.0, 434.0)">D</text><text xml:space="preserve" font-family="DINCondensed-Bold" font-weight="bold" font-size="275.7" fill="#34A4DA" transform="matrix(1.00, 0.00, -0.00, -1.00, 1274.5, 434.0)">I</text><text xml:space="preserve" font-family="DINCondensed-Bold" font-weight="bold" font-size="275.7" fill="#34A4DA" transform="matrix(1.00, 0.00, -0.00, -1.00, 1330.7, 434.0)">N</text><text xml:space="preserve" font-family="DINCondensed-Bold" font-weight="bold" font-size="275.7" fill="#34A4DA" transform="matrix(1.00, 0.00, -0.00, -1.00, 1453.1, 434.0)">G</text><text xml:space="preserve" font-family="DINCondensed-Bold" font-weight="bold" font-size="275.7" fill="#34A4DA" transform="matrix(1.00, 0.00, -0.00, -1.00, 1570.6, 434.0)">…</text></g></svg>